<svg id="立即分析_icon" xmlns="http://www.w3.org/2000/svg" width="14" height="14" viewBox="0 0 14 14">
  <defs>
    <style>
      .cls-1 {
        fill: #fff;
        fill-rule: evenodd;
      }
    </style>
  </defs>
  <path id="圆角矩形_636" data-name="圆角矩形 636" class="cls-1" d="M1764,628h-12a1,1,0,0,1-1-1V615a1,1,0,0,1,2,0v11h11A1,1,0,0,1,1764,628Z" transform="translate(-1751 -614)"/>
  <path id="圆角矩形_2152" data-name="圆角矩形 2152" class="cls-1" d="M1763.87,619.768l-2,3.464a1.006,1.006,0,0,1-1.37.366,1.039,1.039,0,0,1-.27-0.236,0.991,0.991,0,0,1-.52-0.256l-2.38-2.387-1.48,2.549a0.992,0.992,0,0,1-1.36.366,1,1,0,0,1-.37-1.366l2-3.464a1.006,1.006,0,0,1,1.37-.366,1.042,1.042,0,0,1,.16.144,0.982,0.982,0,0,1,.65.281l2.4,2.4,1.43-2.491A1,1,0,0,1,1763.87,619.768Z" transform="translate(-1751 -614)"/>
</svg>
