<svg t="1650251205919" class="icon" viewBox="0 0 1024 1024" version="1.1" xmlns="http://www.w3.org/2000/svg" p-id="19517" width="200" height="200"><path d="M122.368 165.888h778.24c-9.216 0-16.384-7.168-16.384-16.384v713.728c0-9.216 7.168-16.384 16.384-16.384h-778.24c9.216 0 16.384 7.168 16.384 16.384V150.016c0 8.192-6.656 15.872-16.384 15.872z m-32.768 684.544c0 26.112 20.992 47.104 47.104 47.104h750.08c26.112 0 47.104-20.992 47.104-47.104V162.304c0-26.112-20.992-47.104-47.104-47.104H136.704c-26.112 0-47.104 20.992-47.104 47.104v688.128z" p-id="19518"></path><path d="M706.048 719.872h-389.12V292.864h389.12v427.008z m-330.752-57.856h272.384V350.72H375.296v311.296z" p-id="19519"></path><path d="M757.248 377.856h126.976v316.928h-126.976zM138.752 376.832h126.976v316.928H138.752z" p-id="19520"></path></svg>