<svg id="八大控制图选择流程" xmlns="http://www.w3.org/2000/svg" width="1072.5" height="334.531" viewBox="0 0 1072.5 334.531">
  <defs>
    <style>
      .cls-1 {
        fill: #f0f4fa;
        stroke: #ebf1fa;
        stroke-width: 2px;
      }

      .cls-2 {
        fill: #626466;
      }

      .cls-2, .cls-3, .cls-5, .cls-6, .cls-7, .cls-8 {
        fill-rule: evenodd;
      }

      .cls-3 {
        fill: #f5faf0;
        stroke: #e9f2df;
      }

      .cls-3, .cls-6 {
        stroke-width: 1px;
      }

      .cls-4, .cls-7 {
        fill: #c4c7cc;
      }

      .cls-5 {
        fill: #abaeb3;
      }

      .cls-6 {
        fill: #faf4eb;
        stroke: #f7eddf;
      }

      .cls-8 {
        fill: #7a7c80;
      }
    </style>
  </defs>
  <rect id="矩形_1536" data-name="矩形 1536" class="cls-1" x="1" y="137.5" width="56" height="120" rx="8" ry="8"/>
  <path id="控制图选择" class="cls-2" d="M1623.46,338.414c0.48-.144,1-0.3,1.55-0.457v3.129a0.475,0.475,0,0,1-.53.551,9.642,9.642,0,0,1-1.03-.082c0.07,0.328.12,0.652,0.16,0.973q0.81,0.022,1.2.023a1.05,1.05,0,0,0,1.12-1.242v-3.615c0.4-.117.82-0.237,1.25-0.358a7.061,7.061,0,0,1-.08-0.914q-0.57.165-1.17,0.328v-2.472h1.19v-0.844h-1.19v-2.273h-0.92v2.273h-1.6v0.844h1.6v2.713c-0.53.136-1.08,0.275-1.66,0.416Zm4.27-.011h2.86v2.918h-3.63v0.867h7.99v-0.867h-3.45V338.4h2.89v-0.821h-6.66V338.4Zm-0.18-3.375h0.92v-1.254h5.24v1.254h0.91v-2.11h-3.38l0.58-.386c-0.3-.438-0.68-0.926-1.11-1.465l-0.75.48q0.525,0.685.96,1.371h-3.37v2.11Zm6.68,2.379,0.66-.739q-1.08-.96-2.64-2.1l-0.62.609a26.018,26.018,0,0,1,2.6,2.227h0Zm-4.37-2.86a22.17,22.17,0,0,1-2.58,2.145l0.65,0.7c0.82-.648,1.69-1.383,2.6-2.2Zm-3.1,15.529h-1.4c0.13-.368.24-0.75,0.34-1.149l-0.86-.223a9.257,9.257,0,0,1-1.29,3.024c0.27,0.148.54,0.3,0.79,0.445a9.31,9.31,0,0,0,.68-1.277h1.74v1.57h-3.37v0.82h3.37V354.6h-2.49v4.266h0.87V355.4h1.62v4.348h0.91V355.4h1.7v1.875a0.479,0.479,0,0,1-.49.586c-0.24,0-.56-0.012-0.94-0.035q0.12,0.468.18,0.843c0.4,0.008.73,0.008,0.97,0a1.081,1.081,0,0,0,1.15-1.277V354.6h-2.57v-1.313h3.06v-0.82h-3.06V350.9h2.54v-0.82h-2.54v-1.793h-0.91v1.793Zm6.68,7.664a0.7,0.7,0,0,1-.74.832c-0.33,0-.82-0.032-1.48-0.094,0.08,0.375.14,0.715,0.19,1.019,0.74,0.008,1.27.012,1.57,0.012a1.319,1.319,0,0,0,1.39-1.582v-9.656h-0.93v9.469Zm-1.35-8.344h-0.9v7.219h0.9V349.4Zm-8.1,27.317h0.88v-0.562h8.58v0.562h0.88V365.686h-10.34v11.027Zm9.46-1.406h-8.58V366.53h8.58v8.777Zm-7.61-5.332a15.1,15.1,0,0,0,1.22-1.043,6.518,6.518,0,0,0,1.42,1.307,19.692,19.692,0,0,1-3.4.966,4.759,4.759,0,0,1,.4.75,24.99,24.99,0,0,0,3.81-1.259,22.336,22.336,0,0,0,3.51,1.072,6.928,6.928,0,0,1,.39-0.879,16.45,16.45,0,0,1-3.03-.65,9.206,9.206,0,0,0,2.2-1.881v-0.692h-4.15c0.17-.207.32-0.418,0.47-0.633l-0.77-.363a10.473,10.473,0,0,1-2.64,2.731c0.23,0.218.42,0.41,0.57,0.574h0Zm5.84,4.945,0.32-.89q-2.715-.516-5.64-0.9l-0.25.809c1.99,0.273,3.84.6,5.57,0.984h0Zm-2.41-5.051a5.3,5.3,0,0,1-1.72-1.435,0.364,0.364,0,0,0,.03-0.041h3.62a6.862,6.862,0,0,1-1.93,1.476h0Zm1.68,3.129,0.25-.82c-1.27-.219-2.47-0.414-3.62-0.586l-0.24.785c1.13,0.157,2.33.364,3.61,0.621h0Zm-4.47,14.884h2.28c-0.02.4-.03,0.715-0.05,0.949-0.05,1.07-.77,1.891-2.14,2.461,0.23,0.3.43,0.559,0.59,0.785a3.587,3.587,0,0,0,2.46-3.246c0.01-.277.02-0.594,0.03-0.949h1.57v2.6a1.129,1.129,0,0,0,1.22,1.325h0.87a1.187,1.187,0,0,0,1.33-1.043c0.07-.367.14-0.821,0.2-1.36a9.484,9.484,0,0,1-.89-0.339c-0.04.617-.08,1.078-0.13,1.382a0.572,0.572,0,0,1-.62.563h-0.56a0.512,0.512,0,0,1-.52-0.621v-2.508h2.77v-0.809h-3.62v-1.957h3.06v-0.808h-3.06v-2.039h-0.91v2.039h-1.69c0.15-.434.29-0.895,0.43-1.383l-0.91-.2a13.053,13.053,0,0,1-1.36,3.562,6.21,6.21,0,0,1,.82.422,14.572,14.572,0,0,0,.73-1.594h1.98v1.957h-3.88v0.809Zm-0.75,3.545v-5.01h-2.3v0.867h1.39v3.944q-0.45.433-1.5,1.435l0.48,0.973a17.857,17.857,0,0,1,1.41-1.57,3.254,3.254,0,0,0,2.92,1.417l2.45,0.036,4.09-.047q0.195-.54.33-0.926l-4.32.082-2.45-.023a2.755,2.755,0,0,1-2.5-1.178h0Zm-1.69-8.444q0.6,0.81,1.56,2.3l0.83-.586c-0.7-.992-1.24-1.73-1.64-2.214Zm4.18,17.708a5.66,5.66,0,0,0,1.97,2.368,17.143,17.143,0,0,1-3.05.972,4.449,4.449,0,0,1,.4.867,16.212,16.212,0,0,0,3.52-1.3,12.392,12.392,0,0,0,3.48,1.16c0.13-.266.3-0.574,0.49-0.926a12.1,12.1,0,0,1-3.08-.762,6.873,6.873,0,0,0,2.28-2.4v-0.785h-6.69v0.808h0.68Zm-1.28,8.063h3.65v2h0.89v-2h3.55V407.91h-3.55v-1.359h3v-0.844h-3v-1.336h-0.89v1.336h-2.93v0.844h2.93v1.359h-3.65v0.844Zm-3.48-2.18c0.48-.136.99-0.281,1.54-0.433V409.2a0.508,0.508,0,0,1-.52.621,8.1,8.1,0,0,1-1.04-.093,7.528,7.528,0,0,1,.15.949c0.55,0.015.92,0.023,1.1,0.023a1.1,1.1,0,0,0,1.19-1.3v-3.5c0.42-.117.85-0.236,1.31-0.357a6.275,6.275,0,0,1-.08-0.867q-0.6.164-1.23,0.328v-2.566h1.5v-0.821h-1.5v-2.285H1625v2.285h-1.55v0.821H1625v2.789q-0.8.194-1.65,0.386Zm7.59-3.943a4.965,4.965,0,0,1-1.94-1.94h4.08a5.576,5.576,0,0,1-2.14,1.94h0Z" transform="translate(-1600 -170.5)"/>
  <path id="矩形_1536-2" data-name="矩形 1536" class="cls-3" d="M2580,465h84a8,8,0,0,1,8,8v16a8,8,0,0,1-8,8h-84a8,8,0,0,1-8-8V473A8,8,0,0,1,2580,465Z" transform="translate(-1600 -170.5)"/>
  <path id="P图" class="cls-2" d="M2615.95,482.377a3.33,3.33,0,0,0,2.38-.783,2.746,2.746,0,0,0,.95-2.165,2.524,2.524,0,0,0-.82-2.027,3.349,3.349,0,0,0-2.28-.709h-2.58v9.076h1.18v-3.392h1.17Zm0.02-4.653c1.38,0,2.08.584,2.08,1.752a1.741,1.741,0,0,1-.56,1.386,2.411,2.411,0,0,1-1.63.483h-1.08v-3.621h1.19Zm4.61,9.563h0.88v-0.563h8.58v0.563h0.88V476.259h-10.34v11.028Zm9.46-1.406h-8.58V477.1h8.58v8.778Zm-7.61-5.333a14.894,14.894,0,0,0,1.22-1.042,6.75,6.75,0,0,0,1.42,1.306,19.684,19.684,0,0,1-3.4.967,4.672,4.672,0,0,1,.4.75,24.867,24.867,0,0,0,3.81-1.26,21.952,21.952,0,0,0,3.52,1.072,5.532,5.532,0,0,1,.38-0.878,16.443,16.443,0,0,1-3.03-.651,8.972,8.972,0,0,0,2.2-1.881V478.24h-4.15a7.185,7.185,0,0,0,.47-0.633l-0.77-.363a10.454,10.454,0,0,1-2.64,2.73q0.345,0.329.57,0.574h0Zm5.84,4.946,0.32-.891q-2.715-.516-5.64-0.9l-0.25.808c1.99,0.274,3.84.6,5.57,0.985h0Zm-2.41-5.051a5.4,5.4,0,0,1-1.72-1.436,0.291,0.291,0,0,0,.03-0.041h3.62a6.741,6.741,0,0,1-1.93,1.477h0Zm1.68,3.129,0.25-.82c-1.27-.219-2.47-0.414-3.62-0.586l-0.24.785c1.13,0.156,2.33.363,3.61,0.621h0Z" transform="translate(-1600 -170.5)"/>
  <path id="矩形_1536-3" data-name="矩形 1536" class="cls-3" d="M2580,423h84a8,8,0,0,1,8,8v16a8,8,0,0,1-8,8h-84a8,8,0,0,1-8-8V431A8,8,0,0,1,2580,423Z" transform="translate(-1600 -170.5)"/>
  <path id="NP图" class="cls-2" d="M2616.02,434.693h-1.16v6.24a9.91,9.91,0,0,0,.06,1.324h-0.03a6.483,6.483,0,0,0-.37-0.626l-4.44-6.938h-1.48v9.076h1.16v-6.381a11.473,11.473,0,0,0-.04-1.271h0.03a3.551,3.551,0,0,0,.31.592l4.57,7.06h1.39v-9.076Zm4.69,5.684a3.29,3.29,0,0,0,2.37-.783,2.714,2.714,0,0,0,.95-2.165,2.55,2.55,0,0,0-.81-2.027,3.349,3.349,0,0,0-2.28-.709h-2.58v9.076h1.17v-3.392h1.18Zm0.02-4.653q2.07,0,2.07,1.752a1.735,1.735,0,0,1-.55,1.386,2.447,2.447,0,0,1-1.63.483h-1.09v-3.621h1.2Zm4.61,9.563h0.88v-0.563h8.58v0.563h0.87V434.259h-10.33v11.028Zm9.46-1.406h-8.58V435.1h8.58v8.778Zm-7.61-5.333a14.71,14.71,0,0,0,1.21-1.042,6.806,6.806,0,0,0,1.43,1.306,19.95,19.95,0,0,1-3.4.967,5.632,5.632,0,0,1,.4.75,24.867,24.867,0,0,0,3.81-1.26,21.493,21.493,0,0,0,3.51,1.072,6.925,6.925,0,0,1,.39-0.878,16.084,16.084,0,0,1-3.03-.651,9.161,9.161,0,0,0,2.2-1.881V436.24h-4.15c0.17-.207.32-0.418,0.47-0.633l-0.78-.363a10.257,10.257,0,0,1-2.63,2.73q0.33,0.329.57,0.574h0Zm5.84,4.946,0.31-.891q-2.7-.516-5.63-0.9l-0.25.808q2.97,0.411,5.57.985h0Zm-2.42-5.051a5.357,5.357,0,0,1-1.71-1.436,0.291,0.291,0,0,0,.03-0.041h3.62a6.8,6.8,0,0,1-1.94,1.477h0Zm1.69,3.129,0.25-.82q-1.9-.329-3.63-0.586l-0.23.785c1.13,0.156,2.33.363,3.61,0.621h0Z" transform="translate(-1600 -170.5)"/>
  <path id="矩形_1536-4" data-name="矩形 1536" class="cls-3" d="M2580,381h84a8,8,0,0,1,8,8v16a8,8,0,0,1-8,8h-84a8,8,0,0,1-8-8V389A8,8,0,0,1,2580,381Z" transform="translate(-1600 -170.5)"/>
  <path id="C图" class="cls-2" d="M2619.82,400.269a4.438,4.438,0,0,1-2.35.61,3.03,3.03,0,0,1-2.33-.958,3.666,3.666,0,0,1-.89-2.587,3.837,3.837,0,0,1,.95-2.728,3.272,3.272,0,0,1,2.48-1.011,4.371,4.371,0,0,1,2.14.539V392.91a5.458,5.458,0,0,0-2.15-.369,4.492,4.492,0,0,0-3.34,1.336,4.833,4.833,0,0,0-1.31,3.527,4.618,4.618,0,0,0,1.16,3.278,4.09,4.09,0,0,0,3.12,1.24,5.382,5.382,0,0,0,2.52-.528v-1.125Zm1.45,3.018h0.88v-0.563h8.58v0.563h0.87V392.259h-10.33v11.028Zm9.46-1.406h-8.58V393.1h8.58v8.778Zm-7.61-5.333a14.71,14.71,0,0,0,1.21-1.042,6.806,6.806,0,0,0,1.43,1.306,19.95,19.95,0,0,1-3.4.967,5.632,5.632,0,0,1,.4.75,24.867,24.867,0,0,0,3.81-1.26,21.493,21.493,0,0,0,3.51,1.072,6.925,6.925,0,0,1,.39-0.878,16.084,16.084,0,0,1-3.03-.651,9.161,9.161,0,0,0,2.2-1.881V394.24h-4.15c0.17-.207.32-0.418,0.47-0.633l-0.78-.363a10.257,10.257,0,0,1-2.63,2.73q0.33,0.329.57,0.574h0Zm5.84,4.946,0.31-.891q-2.7-.516-5.63-0.9l-0.25.808q2.97,0.411,5.57.985h0Zm-2.42-5.051a5.357,5.357,0,0,1-1.71-1.436,0.291,0.291,0,0,0,.03-0.041h3.62a6.8,6.8,0,0,1-1.94,1.477h0Zm1.69,3.129,0.25-.82q-1.905-.329-3.63-0.586l-0.23.785c1.13,0.156,2.33.363,3.61,0.621h0Z" transform="translate(-1600 -170.5)"/>
  <path id="矩形_1536-5" data-name="矩形 1536" class="cls-3" d="M2580,339h84a8,8,0,0,1,8,8v16a8,8,0,0,1-8,8h-84a8,8,0,0,1-8-8V347A8,8,0,0,1,2580,339Z" transform="translate(-1600 -170.5)"/>
  <path id="U图" class="cls-2" d="M2619.33,350.693h-1.17v5.549c0,1.758-.74,2.637-2.21,2.637q-2.28,0-2.28-2.725v-5.461h-1.18v5.514q0,3.714,3.35,3.715,3.495,0,3.49-3.85v-5.379Zm1.87,10.594h0.88v-0.563h8.58v0.563h0.88V350.259H2621.2v11.028Zm9.46-1.406h-8.58V351.1h8.58v8.778Zm-7.61-5.333a14.71,14.71,0,0,0,1.21-1.042,6.806,6.806,0,0,0,1.43,1.306,19.95,19.95,0,0,1-3.4.967,4.672,4.672,0,0,1,.4.75,24.867,24.867,0,0,0,3.81-1.26,21.805,21.805,0,0,0,3.51,1.072,6.925,6.925,0,0,1,.39-0.878,16.084,16.084,0,0,1-3.03-.651,9.161,9.161,0,0,0,2.2-1.881V352.24h-4.15c0.17-.207.32-0.418,0.47-0.633l-0.78-.363a10.257,10.257,0,0,1-2.63,2.73c0.22,0.219.42,0.41,0.57,0.574h0Zm5.84,4.946,0.31-.891q-2.7-.516-5.63-0.9l-0.25.808c1.99,0.274,3.84.6,5.57,0.985h0Zm-2.42-5.051a5.357,5.357,0,0,1-1.71-1.436,0.291,0.291,0,0,0,.03-0.041h3.62a6.8,6.8,0,0,1-1.94,1.477h0Zm1.69,3.129,0.25-.82c-1.27-.219-2.48-0.414-3.62-0.586l-0.24.785c1.13,0.156,2.33.363,3.61,0.621h0Z" transform="translate(-1600 -170.5)"/>
  <path id="矩形_1536-6" data-name="矩形 1536" class="cls-3" d="M2580,297h84a8,8,0,0,1,8,8v16a8,8,0,0,1-8,8h-84a8,8,0,0,1-8-8V305A8,8,0,0,1,2580,297Z" transform="translate(-1600 -170.5)"/>
  <path id="X-R图" class="cls-2" d="M2611.12,313.193l2.84-4.5h-1.35l-1.87,3.111c-0.14.239-.25,0.463-0.35,0.674h-0.02a6.133,6.133,0,0,0-.32-0.644l-1.79-3.141h-1.43l2.77,4.518-3.01,4.558h1.42l2.09-3.41q0.2-.427.21-0.475h0.03a3.016,3.016,0,0,0,.21.469l2.02,3.416H2614Zm7.42,0.539h-3.45v0.885h3.45v-0.885Zm6.92,1.318a7.118,7.118,0,0,0-.7-1,1.867,1.867,0,0,0-.65-0.451v-0.029a2.4,2.4,0,0,0,2.02-2.449,2.218,2.218,0,0,0-.75-1.787,3.12,3.12,0,0,0-2.08-.639h-2.76v9.076h1.17v-3.82h0.84a1.494,1.494,0,0,1,.9.272,3.511,3.511,0,0,1,.82,1.029l1.51,2.519h1.38Zm-2.35-5.332a1.978,1.978,0,0,1,1.33.4,1.409,1.409,0,0,1,.46,1.107,1.594,1.594,0,0,1-.51,1.231,1.809,1.809,0,0,1-1.3.468h-1.38v-3.2h1.4Zm4.9,9.569h0.88v-0.563h8.57v0.563h0.88V308.259h-10.33v11.028Zm9.45-1.406h-8.57V309.1h8.57v8.778Zm-7.6-5.333a14.71,14.71,0,0,0,1.21-1.042,6.568,6.568,0,0,0,1.43,1.306,19.95,19.95,0,0,1-3.4.967,5.632,5.632,0,0,1,.4.75,24.33,24.33,0,0,0,3.8-1.26,21.952,21.952,0,0,0,3.52,1.072,6.925,6.925,0,0,1,.39-0.878,16.084,16.084,0,0,1-3.03-.651,8.915,8.915,0,0,0,2.19-1.881V310.24h-4.14c0.16-.207.32-0.418,0.46-0.633l-0.77-.363a10.454,10.454,0,0,1-2.64,2.73c0.23,0.219.42,0.41,0.58,0.574h0Zm5.83,4.946,0.32-.891q-2.7-.516-5.64-0.9l-0.24.808c1.98,0.274,3.84.6,5.56,0.985h0Zm-2.41-5.051a5.506,5.506,0,0,1-1.72-1.436,0.1,0.1,0,0,0,.04-0.041h3.61a6.741,6.741,0,0,1-1.93,1.477h0Zm1.69,3.129,0.24-.82c-1.26-.219-2.47-0.414-3.62-0.586l-0.23.785c1.12,0.156,2.33.363,3.61,0.621h0Z" transform="translate(-1600 -170.5)"/>
  <path id="矩形_1536-7" data-name="矩形 1536" class="cls-3" d="M2580,255h84a8,8,0,0,1,8,8v16a8,8,0,0,1-8,8h-84a8,8,0,0,1-8-8V263A8,8,0,0,1,2580,255Z" transform="translate(-1600 -170.5)"/>
  <path id="X-S图" class="cls-2" d="M2611.12,271.193l2.84-4.5h-1.35l-1.87,3.111c-0.14.239-.25,0.463-0.35,0.674h-0.02a6.133,6.133,0,0,0-.32-0.644l-1.79-3.141h-1.43l2.77,4.518-3.01,4.558h1.42l2.09-3.41q0.2-.427.21-0.475h0.03a3.016,3.016,0,0,0,.21.469l2.02,3.416H2614Zm7.42,0.539h-3.45v0.885h3.45v-0.885Zm1.57,3.668a3.041,3.041,0,0,0,1.05.372,6.284,6.284,0,0,0,1.26.15,4.015,4.015,0,0,0,2.41-.639,2.155,2.155,0,0,0,.86-1.834,2.21,2.21,0,0,0-.53-1.436,5.672,5.672,0,0,0-1.87-1.277,7.514,7.514,0,0,1-1.58-.943,1.189,1.189,0,0,1-.36-0.9,1.108,1.108,0,0,1,.53-0.97,2.376,2.376,0,0,1,1.35-.348,3.576,3.576,0,0,1,2.08.568v-1.277a4.575,4.575,0,0,0-1.99-.328,3.773,3.773,0,0,0-2.29.662,2.094,2.094,0,0,0-.91,1.793,2.167,2.167,0,0,0,.43,1.333,5.2,5.2,0,0,0,1.8,1.262,13.346,13.346,0,0,1,1.34.721,2.011,2.011,0,0,1,.57.539,1.25,1.25,0,0,1,.2.686c0,0.906-.63,1.359-1.91,1.359a4.108,4.108,0,0,1-1.32-.234,3.263,3.263,0,0,1-1.12-.6V275.4Zm6.99,1.887h0.88v-0.563h8.58v0.563h0.87V266.259H2627.1v11.028Zm9.46-1.406h-8.58V267.1h8.58v8.778Zm-7.61-5.333a14.71,14.71,0,0,0,1.21-1.042,6.806,6.806,0,0,0,1.43,1.306,19.95,19.95,0,0,1-3.4.967,5.632,5.632,0,0,1,.4.75,24.867,24.867,0,0,0,3.81-1.26,21.493,21.493,0,0,0,3.51,1.072,6.925,6.925,0,0,1,.39-0.878,16.084,16.084,0,0,1-3.03-.651,9.161,9.161,0,0,0,2.2-1.881V268.24h-4.15c0.17-.207.32-0.418,0.47-0.633l-0.78-.363a10.257,10.257,0,0,1-2.63,2.73q0.33,0.329.57,0.574h0Zm5.84,4.946,0.31-.891q-2.7-.516-5.63-0.9l-0.25.808q2.97,0.411,5.57.985h0Zm-2.42-5.051a5.357,5.357,0,0,1-1.71-1.436,0.291,0.291,0,0,0,.03-0.041h3.62a6.8,6.8,0,0,1-1.94,1.477h0Zm1.69,3.129,0.25-.82q-1.905-.329-3.63-0.586l-0.23.785c1.13,0.156,2.33.363,3.61,0.621h0Z" transform="translate(-1600 -170.5)"/>
  <path id="矩形_1536-8" data-name="矩形 1536" class="cls-3" d="M2580,213h84a8,8,0,0,1,8,8v16a8,8,0,0,1-8,8h-84a8,8,0,0,1-8-8V221A8,8,0,0,1,2580,213Z" transform="translate(-1600 -170.5)"/>
  <path id="M-R图" class="cls-2" d="M2613.98,233.769v-9.076h-1.51l-2.73,6.2q-0.12.3-.42,1.137h-0.05a7.5,7.5,0,0,0-.4-1.113l-2.68-6.223h-1.59v9.076h1.12V227.81c0-.8-0.02-1.418-0.05-1.84h0.03a6.192,6.192,0,0,0,.27.967l2.99,6.832h0.65l2.99-6.885a5.146,5.146,0,0,0,.27-0.914h0.03q-0.09,1.044-.09,1.787v6.012h1.17Zm5.54-4.037h-3.45v0.885h3.45v-0.885Zm6.93,1.318a6.99,6.99,0,0,0-.71-1,1.867,1.867,0,0,0-.65-0.451v-0.029a2.393,2.393,0,0,0,2.02-2.449,2.218,2.218,0,0,0-.75-1.787,3.092,3.092,0,0,0-2.07-.639h-2.77v9.076h1.17v-3.82h0.85a1.484,1.484,0,0,1,.89.272,3.51,3.51,0,0,1,.83,1.029l1.5,2.519h1.39Zm-2.36-5.332a1.961,1.961,0,0,1,1.33.4,1.377,1.377,0,0,1,.46,1.107,1.622,1.622,0,0,1-.5,1.231,1.842,1.842,0,0,1-1.3.468h-1.39v-3.205h1.4Zm4.9,9.569h0.88v-0.563h8.58v0.563h0.88V224.259h-10.34v11.028Zm9.46-1.406h-8.58V225.1h8.58v8.778Zm-7.61-5.333c0.44-.339.84-0.687,1.22-1.042a6.514,6.514,0,0,0,1.42,1.306,19.95,19.95,0,0,1-3.4.967,4.672,4.672,0,0,1,.4.75,24.867,24.867,0,0,0,3.81-1.26,22.126,22.126,0,0,0,3.51,1.072,6.925,6.925,0,0,1,.39-0.878,16.443,16.443,0,0,1-3.03-.651,9.161,9.161,0,0,0,2.2-1.881V226.24h-4.15c0.17-.207.32-0.418,0.47-0.633l-0.77-.363a10.454,10.454,0,0,1-2.64,2.73q0.345,0.329.57,0.574h0Zm5.84,4.946,0.32-.891q-2.715-.516-5.64-0.9l-0.25.808c1.99,0.274,3.84.6,5.57,0.985h0Zm-2.42-5.051a5.357,5.357,0,0,1-1.71-1.436,0.291,0.291,0,0,0,.03-0.041h3.62a6.8,6.8,0,0,1-1.94,1.477h0Zm1.69,3.129,0.25-.82c-1.27-.219-2.47-0.414-3.62-0.586l-0.24.785c1.13,0.156,2.33.363,3.61,0.621h0Z" transform="translate(-1600 -170.5)"/>
  <path id="矩形_1536-9" data-name="矩形 1536" class="cls-3" d="M2580,171h84a8,8,0,0,1,8,8v16a8,8,0,0,1-8,8h-84a8,8,0,0,1-8-8V179A8,8,0,0,1,2580,171Z" transform="translate(-1600 -170.5)"/>
  <path id="X-MR图" class="cls-2" d="M2605.12,187.193l2.84-4.5h-1.35l-1.87,3.111c-0.14.239-.25,0.463-0.35,0.674h-0.02a6.133,6.133,0,0,0-.32-0.644l-1.79-3.141h-1.43l2.77,4.518-3.01,4.558h1.42l2.09-3.41q0.2-.427.21-0.475h0.03a3.016,3.016,0,0,0,.21.469l2.02,3.416H2608Zm7.42,0.539h-3.45v0.885h3.45v-0.885Zm11.37,4.037v-9.076h-1.51l-2.73,6.2q-0.12.3-.42,1.137h-0.04a9.281,9.281,0,0,0-.41-1.113l-2.68-6.223h-1.58v9.076h1.12V185.81q0-1.206-.06-1.84h0.03a6.192,6.192,0,0,0,.27.967l2.99,6.832h0.65l2.99-6.885a5.146,5.146,0,0,0,.27-0.914h0.03c-0.06.7-.08,1.291-0.08,1.787v6.012h1.16Zm7.28-2.719a6.99,6.99,0,0,0-.71-1,1.924,1.924,0,0,0-.64-0.451v-0.029a2.393,2.393,0,0,0,2.01-2.449,2.218,2.218,0,0,0-.75-1.787,3.092,3.092,0,0,0-2.07-.639h-2.77v9.076h1.17v-3.82h0.85a1.484,1.484,0,0,1,.89.272,3.51,3.51,0,0,1,.83,1.029l1.5,2.519h1.39Zm-2.36-5.332a1.943,1.943,0,0,1,1.33.4,1.377,1.377,0,0,1,.46,1.107,1.622,1.622,0,0,1-.5,1.231,1.826,1.826,0,0,1-1.3.468h-1.39v-3.205h1.4Zm4.9,9.569h0.88v-0.563h8.58v0.563h0.88V182.259h-10.34v11.028Zm9.46-1.406h-8.58V183.1h8.58v8.778Zm-7.61-5.333c0.44-.339.84-0.687,1.22-1.042a6.514,6.514,0,0,0,1.42,1.306,19.684,19.684,0,0,1-3.4.967,4.672,4.672,0,0,1,.4.75,24.867,24.867,0,0,0,3.81-1.26,22.126,22.126,0,0,0,3.51,1.072,6.925,6.925,0,0,1,.39-0.878,16.443,16.443,0,0,1-3.03-.651,9.161,9.161,0,0,0,2.2-1.881V184.24h-4.15c0.17-.207.32-0.418,0.47-0.633l-0.77-.363a10.454,10.454,0,0,1-2.64,2.73q0.345,0.329.57,0.574h0Zm5.84,4.946,0.32-.891q-2.715-.516-5.64-0.9l-0.25.808c1.99,0.274,3.84.6,5.57,0.985h0Zm-2.42-5.051a5.357,5.357,0,0,1-1.71-1.436,0.291,0.291,0,0,0,.03-0.041h3.62a6.8,6.8,0,0,1-1.94,1.477h0Zm1.69,3.129,0.25-.82c-1.27-.219-2.47-0.414-3.62-0.586l-0.24.785c1.13,0.156,2.33.363,3.61,0.621h0Z" transform="translate(-1600 -170.5)"/>
  <rect id="矩形_1553" data-name="矩形 1553" class="cls-4" x="61" y="197.5" width="60" height="1" rx="0.5" ry="0.5"/>
  <path id="三角形_1614" data-name="三角形 1614" class="cls-5" d="M1729,368l-12.75,5.875L1720,368l-3.75-5.875Z" transform="translate(-1600 -170.5)"/>
  <path id="矩形_1553-2" data-name="矩形 1553" class="cls-6" d="M1735.35,362.118l36.77-36.769a7.994,7.994,0,0,1,11.31,0l36.77,36.769a7.99,7.99,0,0,1,0,11.314L1783.43,410.2a7.994,7.994,0,0,1-11.31,0l-36.77-36.769A7.99,7.99,0,0,1,1735.35,362.118Z" transform="translate(-1600 -170.5)"/>
  <path id="数据性质" class="cls-2" d="M1759.18,367.275a8.781,8.781,0,0,1,.59.75c0.18-.25.35-0.52,0.52-0.809a10.388,10.388,0,0,0,1.25,3.785,10.4,10.4,0,0,1-2.66,2.45,6.8,6.8,0,0,1,.67.738,11.075,11.075,0,0,0,2.56-2.32,9.24,9.24,0,0,0,2.38,2.2c0.17-.274.39-0.582,0.64-0.926a7.47,7.47,0,0,1-2.42-2.109,12.7,12.7,0,0,0,1.5-5.473h0.74v-0.8h-3.59a21.447,21.447,0,0,0,.58-2.121l-0.94-.141a11.36,11.36,0,0,1-1.82,4.77h0Zm-5.73,2.766h1.34c-0.23.382-.48,0.753-0.73,1.113,0.74,0.359,1.44.711,2.11,1.055a9.525,9.525,0,0,1-2.89,1.113c0.14,0.3.27,0.57,0.4,0.82a10.505,10.505,0,0,0,3.34-1.5c0.52,0.273,1.02.547,1.51,0.82l0.51-.808c-0.44-.2-0.88-0.406-1.31-0.61a5.616,5.616,0,0,0,1.35-2.015v-0.762h-2.87c0.12-.211.25-0.426,0.37-0.644l-0.84-.27c-0.16.313-.33,0.617-0.5,0.914h-1.79v0.774Zm0.13-4.032H1756a13.146,13.146,0,0,1-2.71,1.946c0.19,0.25.36,0.488,0.5,0.714a11.555,11.555,0,0,0,2.49-1.957v1.641h0.87v-1.336c0.64,0.508,1.18.965,1.61,1.371l0.57-.656q-0.75-.609-1.83-1.406l-0.35.4v-0.715h2.25v-0.773h-2.25v-2.625h-0.87v2.625h-2.7v0.773Zm8.55,4.1a10.749,10.749,0,0,1-1.18-4.254,2.768,2.768,0,0,0,.13-0.293h2.19a11.32,11.32,0,0,1-1.14,4.547h0Zm-6.38-.07h2.44a5.077,5.077,0,0,1-1.27,1.628q-0.87-.409-1.71-0.785,0.27-.41.54-0.843h0Zm1.92-5.59c0.24,0.172.46,0.336,0.64,0.492,0.43-.477.85-1,1.28-1.559l-0.72-.48q-0.585.832-1.2,1.547h0Zm-2.75.41,0.73-.516c-0.38-.492-0.74-0.953-1.09-1.383l-0.67.457c0.34,0.454.69,0.934,1.03,1.442h0Zm16.29,9.047h0.84v-0.68h4.01v0.68h0.85v-3.961h-2.44v-1.488h3.09v-0.8h-3.09v-1.231h-0.85v1.231h-2.71v-1.453h5.22v0.363h0.85v-3.4h-6.92v4.571q0,3.738-1.46,5.543,0.345,0.375.63,0.738a9.408,9.408,0,0,0,1.66-5.566h2.73v1.488h-2.41v3.961Zm-5.13-4.137q0.69-.246,1.5-0.516v3.094a0.5,0.5,0,0,1-.53.6,9.693,9.693,0,0,1-.98-0.071c0.06,0.336.11,0.661,0.14,0.973,0.47,0.016.83,0.02,1.07,0.012a1.126,1.126,0,0,0,1.16-1.348v-3.545c0.38-.125.76-0.252,1.16-0.381-0.03-.257-0.06-0.562-0.07-0.914-0.35.121-.71,0.241-1.09,0.358v-2.408h1.28v-0.844h-1.28v-2.238h-0.86v2.238h-1.48v0.844h1.48V368.3q-0.8.235-1.62,0.463Zm10.05-4.336h-5.22v-1.488h5.22v1.488Zm-0.07,7.031h-4.01V370.72h4.01v1.746Zm5.99,1.09h8.17v-0.82h-3.44V369.6h2.84v-0.82h-2.84v-2.836h3.08v-0.82h-3.08v-2.578h-0.93v2.578h-1.59c0.18-.524.33-1.055,0.46-1.594l-0.92-.246a15.6,15.6,0,0,1-1.64,4.336,3.883,3.883,0,0,1,.78.539,21.055,21.055,0,0,0,1.01-2.215h1.9v2.836h-3.02v0.82h3.02v3.141h-3.8v0.82Zm-1.83.528h0.91v-8.872c0.27,0.446.54,0.958,0.82,1.536l0.72-.469c-0.29-.555-0.63-1.149-1.04-1.781l-0.5.281v-2.25h-0.91v11.555Zm-1.71-5.942a5.893,5.893,0,0,1,.81.223c0.25-1.063.45-2.067,0.59-3.012l-0.78-.176a26.554,26.554,0,0,1-.62,2.965h0Zm15.91,3.5h0.91v-3.305h5.38v3.305h0.92v-4.125h-3.16v-1.359h3.99v-0.821h-3.99v-1.277h-0.93v1.277h-3.85v0.821h3.85v1.359h-3.12v4.125Zm-2.11-3.949q0,4.054-1.28,5.625c0.24,0.234.47,0.488,0.7,0.762q1.515-1.969,1.52-6.469v-3.6q4.875-.083,9.28-0.4l-0.33-.914a94.483,94.483,0,0,1-9.89.492v4.5Zm5.25,1.254a5.745,5.745,0,0,1-.31,2.5q-0.615,1.242-4.26,1.8c0.2,0.321.37,0.606,0.5,0.856q3.63-.609,4.54-2.168,1.935,0.891,4.18,2.133l0.5-.867q-2.25-1.114-4.39-2.051a8.853,8.853,0,0,0,.15-2.2h-0.91Z" transform="translate(-1600 -170.5)"/>
  <path id="矩形_1553-3" data-name="矩形 1553" class="cls-7" d="M1777,415.5v45a0.5,0.5,0,0,0,1,0v-45A0.5,0.5,0,0,0,1777,415.5ZM1926.5,460h-149a0.5,0.5,0,0,0,0,1h149A0.5,0.5,0,0,0,1926.5,460Z" transform="translate(-1600 -170.5)"/>
  <path id="三角形_1614-2" data-name="三角形 1614" class="cls-5" d="M1935,460l-13-6,3.82,6-3.82,6Z" transform="translate(-1600 -170.5)"/>
  <path id="计数值" class="cls-8" d="M1843.88,447.575h3.41v6.609h1.01v-6.609h3.43v-0.844h-3.43V442.7h-1.01v4.031h-3.41v0.844Zm-1.15,4.781v-5.695h-2.6V447.5h1.66v4.641a1.337,1.337,0,0,1-.41,1.066l0.56,0.8c0.82-.578,1.85-1.258,3.1-2.039-0.03-.273-0.06-0.613-0.08-1.019-0.81.523-1.55,0.992-2.23,1.406h0Zm-2.12-8.883a22.374,22.374,0,0,1,1.74,2.016l0.82-.692c-0.38-.421-1-1.07-1.85-1.945Zm17.94,4a9.106,9.106,0,0,1,.59.75,8.071,8.071,0,0,0,.51-0.808,10.409,10.409,0,0,0,1.26,3.785,10.413,10.413,0,0,1-2.66,2.449,6.8,6.8,0,0,1,.66.738,11.1,11.1,0,0,0,2.57-2.32,9.064,9.064,0,0,0,2.38,2.2q0.255-.41.63-0.926a7.538,7.538,0,0,1-2.41-2.109,12.988,12.988,0,0,0,1.5-5.473h0.74v-0.8h-3.59a21.447,21.447,0,0,0,.58-2.121l-0.94-.14a11.485,11.485,0,0,1-1.82,4.769h0Zm-5.73,2.766h1.34c-0.24.383-.48,0.754-0.73,1.113,0.73,0.36,1.44.711,2.11,1.055a9.525,9.525,0,0,1-2.89,1.113q0.21,0.445.39,0.82a10.306,10.306,0,0,0,3.34-1.5c0.53,0.274,1.03.547,1.52,0.821l0.51-.809c-0.44-.2-0.88-0.406-1.31-0.609a5.611,5.611,0,0,0,1.35-2.016v-0.762h-2.88c0.13-.21.25-0.425,0.38-0.644l-0.84-.27q-0.255.469-.51,0.914h-1.78v0.774Zm0.13-4.031h2.41a13.078,13.078,0,0,1-2.7,1.945c0.18,0.25.35,0.488,0.5,0.715a11.869,11.869,0,0,0,2.49-1.957v1.64h0.86v-1.336q0.975,0.762,1.62,1.372l0.56-.657q-0.735-.609-1.83-1.406l-0.35.4V446.2h2.25V445.43h-2.25v-2.625h-0.86v2.625h-2.7V446.2Zm8.54,4.1a10.738,10.738,0,0,1-1.17-4.254,2.68,2.68,0,0,0,.13-0.293h2.19a11.145,11.145,0,0,1-1.15,4.547h0Zm-6.37-.07h2.44a5.092,5.092,0,0,1-1.27,1.629q-0.885-.411-1.71-0.785,0.27-.411.54-0.844h0Zm1.92-5.59q0.36,0.258.63,0.492,0.645-.714,1.29-1.558l-0.72-.481c-0.4.555-.79,1.071-1.2,1.547h0Zm-2.75.41,0.72-.515c-0.37-.493-0.74-0.953-1.09-1.383l-0.67.457c0.35,0.453.69,0.933,1.04,1.441h0Zm13.88,8.789h8.79v-0.8h-1.11v-7.254h-2.84v-1.066h3.7v-0.8h-3.7v-1.242h-0.89v1.242h-3.39v0.8h3.39v1.066h-2.76v7.254h-1.19v0.8Zm-2.54-4.453a17.693,17.693,0,0,0,1.07-1.746v6.527h0.85V445.84q0.555-1.323,1.02-2.836l-0.86-.257a18.458,18.458,0,0,1-2.44,5.683q0.2,0.469.36,0.961h0Zm4.6,2.59h4.75v1.066h-4.75v-1.066Zm4.75-4.359h-4.75v-1.055h4.75v1.055Zm-4.75.75h4.75v1.054h-4.75v-1.054Zm0,1.8h4.75v1.055h-4.75v-1.055Z" transform="translate(-1600 -170.5)"/>
  <path id="矩形_1553-4" data-name="矩形 1553" class="cls-6" d="M1941.35,454.118l36.77-36.769a7.994,7.994,0,0,1,11.31,0l36.77,36.769a7.99,7.99,0,0,1,0,11.314L1989.43,502.2a7.994,7.994,0,0,1-11.31,0l-36.77-36.769A7.99,7.99,0,0,1,1941.35,454.118Z" transform="translate(-1600 -170.5)"/>
  <path id="不合格品数_或缺陷数" data-name="不合格品数 或缺陷数" class="cls-2" d="M1953.39,450.416H1959a18.107,18.107,0,0,1-5.96,6.046,9.872,9.872,0,0,1,.66.844,19.731,19.731,0,0,0,4.72-4.219v6.985h1.01v-7.348h-0.68q0.945-1.335,1.5-2.308h4.31V449.5h-11.17v0.915Zm6.64,3.468c1.15,0.7,2.52,1.653,4.13,2.848l0.67-.926q-2.04-1.383-4.23-2.719Zm7.46,6.211h0.94v-0.808h6.3v0.785h0.93v-5.2h-8.17V460.1Zm3.71-11.461a14.751,14.751,0,0,1-5.47,4.383c0.23,0.32.42,0.613,0.58,0.879q0.975-.539,1.83-1.1v0.586h6.85v-0.668a14.863,14.863,0,0,0,1.81,1.032c0.17-.282.38-0.594,0.62-0.938a11.932,11.932,0,0,1-5.19-3.832l0.28-.34h-1.31Zm3.53,9.821h-6.3v-2.731h6.3v2.731Zm0.02-5.907h-6.27a14.516,14.516,0,0,0,3.13-2.894,14.523,14.523,0,0,0,3.14,2.894h0Zm8.23,0.375c0.4-.523.78-1.05,1.12-1.582a6.945,6.945,0,0,0,1.42,1.828,14.594,14.594,0,0,1-3.42,1.594c0.14,0.258.27,0.531,0.4,0.821a20.284,20.284,0,0,0,3.76-1.829,14.786,14.786,0,0,0,3.36,1.5,5.818,5.818,0,0,1,.39-1.019,9.8,9.8,0,0,1-2.97-1.055,9.848,9.848,0,0,0,2.21-2.578v-0.832H1985c0.18-.344.35-0.691,0.5-1.043l-0.88-.293a14,14,0,0,1-2.23,3.867c0.24,0.243.44,0.45,0.59,0.621h0Zm0.28,7.161h0.9V459.5h3.99v0.586h0.9v-4.559h-5.79v4.559Zm-4.55-3.188a10.777,10.777,0,0,0,1.4-3.047v6.223h0.88V453.3q0.48,0.528,1.11,1.254l0.61-.574c-0.51-.516-0.97-0.976-1.4-1.383l-0.32.317v-1.289h1.5V450.8h-1.5v-2.285h-0.88V450.8h-1.69v0.821h1.67a12.973,12.973,0,0,1-1.75,4.242,9.528,9.528,0,0,1,.37,1.031h0Zm9.44,1.758h-3.99v-2.285h3.99v2.285Zm-1.91-5.977a6.122,6.122,0,0,1-1.67-2.109h3.61a8.1,8.1,0,0,1-1.94,2.109h0Zm6.49,0.949h0.94v-0.375h6.21v0.375h0.94v-4.64h-8.09v4.64ZM1997.5,460h0.89v-0.8h2.7V460h0.89v-5.414h-4.48V460Zm-5.92,0h0.89v-0.785h2.69V460h0.89v-5.414h-4.47V460Zm8.3-7.57h-6.21v-2.625h6.21v2.625Zm1.21,6.012h-2.7v-3.035h2.7v3.035Zm-5.93-.024h-2.69v-3.011h2.69v3.011Zm14.22-5.144a8.781,8.781,0,0,1,.59.75c0.18-.25.35-0.52,0.52-0.809a10.388,10.388,0,0,0,1.25,3.785,10.4,10.4,0,0,1-2.66,2.45,6.8,6.8,0,0,1,.67.738,11.075,11.075,0,0,0,2.56-2.32,9.24,9.24,0,0,0,2.38,2.2c0.17-.274.39-0.582,0.64-0.926a7.47,7.47,0,0,1-2.42-2.109,12.7,12.7,0,0,0,1.5-5.473h0.74v-0.8h-3.59a21.447,21.447,0,0,0,.58-2.121l-0.94-.141a11.36,11.36,0,0,1-1.82,4.77h0Zm-5.73,2.766h1.34c-0.23.382-.48,0.753-0.73,1.113,0.74,0.359,1.44.711,2.11,1.055a9.525,9.525,0,0,1-2.89,1.113c0.14,0.3.27,0.57,0.4,0.82a10.505,10.505,0,0,0,3.34-1.5c0.52,0.273,1.02.547,1.51,0.82l0.51-.808c-0.44-.2-0.88-0.406-1.31-0.61a5.616,5.616,0,0,0,1.35-2.015v-0.762h-2.87c0.12-.211.25-0.426,0.37-0.644l-0.84-.27c-0.16.313-.33,0.617-0.5,0.914h-1.79v0.774Zm0.13-4.032h2.42a13.146,13.146,0,0,1-2.71,1.946c0.19,0.25.36,0.488,0.5,0.714a11.555,11.555,0,0,0,2.49-1.957v1.641h0.87v-1.336c0.64,0.508,1.18.965,1.61,1.371l0.57-.656q-0.75-.609-1.83-1.406l-0.35.4v-0.715h2.25v-0.773h-2.25v-2.625h-0.87v2.625h-2.7v0.773Zm8.55,4.1a10.749,10.749,0,0,1-1.18-4.254,2.768,2.768,0,0,0,.13-0.293h2.19a11.32,11.32,0,0,1-1.14,4.547h0Zm-6.38-.07h2.44a5.077,5.077,0,0,1-1.27,1.628q-0.87-.409-1.71-0.785,0.27-.41.54-0.843h0Zm1.92-5.59c0.24,0.172.46,0.336,0.64,0.492,0.43-.477.85-1,1.28-1.559l-0.72-.48q-0.585.832-1.2,1.547h0Zm-2.75.41,0.73-.516c-0.38-.492-0.74-0.953-1.09-1.383l-0.67.457c0.34,0.454.69,0.934,1.03,1.442h0Zm-40.15,27.187a13.112,13.112,0,0,0,2.29-2.056,4.793,4.793,0,0,0,1.13,1.447,2.158,2.158,0,0,0,1.32.492,1.088,1.088,0,0,0,1.07-.937,20.57,20.57,0,0,0,.42-2.039,8.471,8.471,0,0,1-.9-0.34,17.32,17.32,0,0,1-.27,1.8q-0.165.845-.87,0.387a3.8,3.8,0,0,1-1.26-1.594,17.637,17.637,0,0,0,2.33-4.183l-0.93-.387a13.24,13.24,0,0,1-1.78,3.563,17.745,17.745,0,0,1-.66-4.77h4.13v-0.867h-4.15q-0.03-.978-0.03-2.039h-0.96c0.02,0.707.05,1.387,0.08,2.039h-6.28v0.867h6.31a19.52,19.52,0,0,0,.89,5.625,12.967,12.967,0,0,1-2.56,2.3c0.27,0.258.5,0.488,0.68,0.691h0Zm-4.49-3.093h0.84v-0.821h2.53v0.539h0.85v-4.1h-4.22v4.383Zm-0.77,2.261q3-.562,5.63-0.961-0.015-.385-0.03-0.89-3.6.621-5.84,0.914Zm4.14-3.9h-2.53v-1.922h2.53v1.922Zm5.7-4.9,0.56-.7q-0.975-.679-1.92-1.23l-0.49.609c0.65,0.43,1.26.871,1.85,1.325h0Zm8.05,4.617h1.84a6.465,6.465,0,0,1-2.15,4v-4.184h-0.82v2.947l-1.09.036v-3.909h2.32v-0.8h-2.32V468.8h1.95v-0.8h-3.34c0.16-.429.31-0.879,0.46-1.347l-0.84-.235a13.459,13.459,0,0,1-1.55,3.7,8.109,8.109,0,0,1,.8.387q0.42-.778.81-1.711h0.86v2.321h-2.47v0.8h2.47v3.938l-1.09.035v-3.047h-0.82v3.867l3.85-.128v0.468h0.79c-0.1.082-.21,0.16-0.31,0.235a7.378,7.378,0,0,1,.62.8,7.642,7.642,0,0,0,2.5-4.09,6.869,6.869,0,0,0,2.94,3.925q0.345-.444.78-0.9a5.7,5.7,0,0,1-3.22-3.984h3.15v-0.821h-0.84v-3.621h-2.39v-2.086h-0.87v2.086h-1.77v0.821h1.76c0,1.3-.03,2.23-0.07,2.8h-1.94v0.821Zm2.88-3.621h1.55v2.8h-1.6c0.03-.625.04-1.558,0.05-2.8h0Zm12.3,5.238h2.06v1.887h-4.8V474.65h2v-0.8h-2v-1.746a15.054,15.054,0,0,0,2.19-.551l-0.5-.8a12.138,12.138,0,0,1-2.56.7v6.586h0.87v-0.714h4.8v0.691h0.87v-6.8h-3.01v0.8h2.14v1.828h-2.06v0.8Zm-5.23-3.7q0.435-1.09,1.08-3.082v-0.821h-3.41V478h0.87V467.865h1.63q-0.465,1.605-1.08,3.234a4.744,4.744,0,0,1,1.02,1.969c0.19,1.008.02,1.539-.5,1.594a2.763,2.763,0,0,1-1.06-.094,9.868,9.868,0,0,1,.25.984,4.009,4.009,0,0,0,1.12-.011c0.93-.165,1.29-1,1.07-2.5a4.771,4.771,0,0,0-.99-2.1h0Zm1.84,0.023a18.656,18.656,0,0,0,1.55-2.332h3.12a15.964,15.964,0,0,1-1.45,1.746,6.162,6.162,0,0,1,.78.446c0.52-.571,1.13-1.317,1.82-2.239v-0.773h-3.84c0.18-.367.36-0.746,0.53-1.137l-0.9-.222a15.534,15.534,0,0,1-2.43,4,5.616,5.616,0,0,1,.82.515h0Zm13.69,0.3a8.781,8.781,0,0,1,.59.75c0.18-.25.35-0.52,0.52-0.809a10.388,10.388,0,0,0,1.25,3.785,10.4,10.4,0,0,1-2.66,2.45,6.8,6.8,0,0,1,.67.738,11.075,11.075,0,0,0,2.56-2.32,9.24,9.24,0,0,0,2.38,2.2c0.17-.274.39-0.582,0.64-0.926a7.47,7.47,0,0,1-2.42-2.109,12.7,12.7,0,0,0,1.5-5.473h0.74v-0.8h-3.59a21.447,21.447,0,0,0,.58-2.121l-0.94-.141a11.36,11.36,0,0,1-1.82,4.77h0Zm-5.73,2.766h1.34c-0.23.382-.48,0.753-0.73,1.113,0.74,0.359,1.44.711,2.11,1.055a9.525,9.525,0,0,1-2.89,1.113c0.14,0.3.27,0.57,0.4,0.82a10.505,10.505,0,0,0,3.34-1.5c0.52,0.273,1.02.547,1.51,0.82l0.51-.808c-0.44-.2-0.88-0.406-1.31-0.61a5.616,5.616,0,0,0,1.35-2.015v-0.762h-2.87c0.12-.211.25-0.426,0.37-0.644l-0.84-.27c-0.16.313-.33,0.617-0.5,0.914h-1.79v0.774Zm0.13-4.032h2.42a13.146,13.146,0,0,1-2.71,1.946c0.19,0.25.36,0.488,0.5,0.714a11.555,11.555,0,0,0,2.49-1.957v1.641h0.87v-1.336c0.64,0.508,1.18.965,1.61,1.371l0.57-.656q-0.75-.609-1.83-1.406l-0.35.4v-0.715h2.25v-0.773h-2.25v-2.625h-0.87v2.625h-2.7v0.773Zm8.55,4.1a10.749,10.749,0,0,1-1.18-4.254,2.768,2.768,0,0,0,.13-0.293h2.19a11.32,11.32,0,0,1-1.14,4.547h0Zm-6.38-.07h2.44a5.077,5.077,0,0,1-1.27,1.628q-0.87-.409-1.71-0.785,0.27-.41.54-0.843h0Zm1.92-5.59c0.24,0.172.46,0.336,0.64,0.492,0.43-.477.85-1,1.28-1.559l-0.72-.48q-0.585.832-1.2,1.547h0Zm-2.75.41,0.73-.516c-0.38-.492-0.74-0.953-1.09-1.383l-0.67.457c0.34,0.454.69,0.934,1.03,1.442h0Z" transform="translate(-1600 -170.5)"/>
  <path id="矩形_1553-5" data-name="矩形 1553" class="cls-6" d="M2226.35,370.118l36.77-36.769a7.994,7.994,0,0,1,11.31,0l36.77,36.769a7.99,7.99,0,0,1,0,11.314L2274.43,418.2a7.994,7.994,0,0,1-11.31,0l-36.77-36.769A7.99,7.99,0,0,1,2226.35,370.118Z" transform="translate(-1600 -170.5)"/>
  <path id="n是否一定" class="cls-2" d="M2245.78,376.488a3.089,3.089,0,0,0-.56-1.989,1.966,1.966,0,0,0-1.62-.683,2.343,2.343,0,0,0-2.13,1.225h-0.02v-1.073h-1.15v6.481h1.15v-3.7a2.071,2.071,0,0,1,.49-1.423,1.55,1.55,0,0,1,1.24-.563c0.97,0,1.46.666,1.46,2v3.686h1.14v-3.961Zm3.53-.674h0.89v-0.469h6.19v0.469h0.89v-4.887h-7.97v4.887Zm-1.96,5.543a9.328,9.328,0,0,1,.58.762,7.173,7.173,0,0,0,2.03-2.344,3.927,3.927,0,0,0,3.58,1.84c1.23,0.031,3,.043,5.3.035,0.09-.281.2-0.59,0.32-0.926-1.97.063-3.71,0.078-5.21,0.047v-1.629h4.17v-0.8h-4.17v-1.172h4.99v-0.82h-11.27v0.82h5.34V380.7a3.652,3.652,0,0,1-2.65-1.729,11.97,11.97,0,0,0,.43-1.166l-0.89-.269a6.275,6.275,0,0,1-2.55,3.82h0Zm2.85-7.84h6.19v1.031h-6.19v-1.031Zm6.19-.773h-6.19v-1.02h6.19v1.02Zm5.24,9.257h0.95v-0.808h6.58v0.785h0.95v-5.2h-8.48V382Zm-1.1-10.007h5.18a19.988,19.988,0,0,1-5.65,3.55,9.069,9.069,0,0,1,.6.856,21.864,21.864,0,0,0,4.8-3.024v3.012h0.95v-3.41h-0.5a11.831,11.831,0,0,0,.92-0.984h4.38V371.15h-10.68v0.844Zm8.63,8.379h-6.58v-2.754h6.58v2.754Zm1.92-4,0.63-.808a50.673,50.673,0,0,0-4.55-2.59l-0.5.68a48.277,48.277,0,0,1,4.42,2.718h0Zm1.58,0.036h11.65V375.38h-11.65v1.032Zm13.18,5.672a7.558,7.558,0,0,0,1.81-2.625,4.185,4.185,0,0,0,3.89,2.144q2.145,0.07,5.01.035a8.516,8.516,0,0,1,.34-0.972c-1.82.066-3.52,0.08-5.07,0.041v-2.456h4.08v-0.867h-4.08v-1.9h4.8v-0.879h-11.13v0.879h5.36v5.156a3.585,3.585,0,0,1-2.82-2.221,13.136,13.136,0,0,0,.43-2.021l-0.99-.152a7.037,7.037,0,0,1-2.25,4.921,8.2,8.2,0,0,1,.62.915h0Zm0.07-7.981h0.93v-1.336h8.52v1.348h0.92v-2.227h-4.74l0.53-.281c-0.36-.437-0.7-0.832-1-1.184l-0.89.481c0.26,0.32.5,0.648,0.73,0.984h-5V374.1Z" transform="translate(-1600 -170.5)"/>
  <path id="矩形_1553-6" data-name="矩形 1553" class="cls-6" d="M2363.35,454.118l36.77-36.769a7.994,7.994,0,0,1,11.31,0l36.77,36.769a7.99,7.99,0,0,1,0,11.314L2411.43,502.2a7.994,7.994,0,0,1-11.31,0l-36.77-36.769A7.99,7.99,0,0,1,2363.35,454.118Z" transform="translate(-1600 -170.5)"/>
  <path id="n是否一定-2" data-name="n是否一定" class="cls-2" d="M2382.78,460.488a3.089,3.089,0,0,0-.56-1.989,1.966,1.966,0,0,0-1.62-.683,2.343,2.343,0,0,0-2.13,1.225h-0.02v-1.073h-1.15v6.481h1.15v-3.7a2.071,2.071,0,0,1,.49-1.423,1.55,1.55,0,0,1,1.24-.563c0.97,0,1.46.666,1.46,2v3.686h1.14v-3.961Zm3.53-.674h0.89v-0.469h6.19v0.469h0.89v-4.887h-7.97v4.887Zm-1.96,5.543a9.328,9.328,0,0,1,.58.762,7.173,7.173,0,0,0,2.03-2.344,3.927,3.927,0,0,0,3.58,1.84c1.23,0.031,3,.043,5.3.035,0.09-.281.2-0.59,0.32-0.926-1.97.063-3.71,0.078-5.21,0.047v-1.629h4.17v-0.8h-4.17v-1.172h4.99v-0.82h-11.27v0.82h5.34V464.7a3.652,3.652,0,0,1-2.65-1.729,11.97,11.97,0,0,0,.43-1.166l-0.89-.269a6.275,6.275,0,0,1-2.55,3.82h0Zm2.85-7.84h6.19v1.031h-6.19v-1.031Zm6.19-.773h-6.19v-1.02h6.19v1.02Zm5.24,9.257h0.95v-0.808h6.58v0.785h0.95v-5.2h-8.48V466Zm-1.1-10.007h5.18a19.988,19.988,0,0,1-5.65,3.55,9.069,9.069,0,0,1,.6.856,21.864,21.864,0,0,0,4.8-3.024v3.012h0.95v-3.41h-0.5a11.831,11.831,0,0,0,.92-0.984h4.38V455.15h-10.68v0.844Zm8.63,8.379h-6.58v-2.754h6.58v2.754Zm1.92-4,0.63-.808a50.673,50.673,0,0,0-4.55-2.59l-0.5.68a48.277,48.277,0,0,1,4.42,2.718h0Zm1.58,0.036h11.65V459.38h-11.65v1.032Zm13.18,5.672a7.558,7.558,0,0,0,1.81-2.625,4.185,4.185,0,0,0,3.89,2.144q2.145,0.07,5.01.035a8.516,8.516,0,0,1,.34-0.972c-1.82.066-3.52,0.08-5.07,0.041v-2.456h4.08v-0.867h-4.08v-1.9h4.8v-0.879h-11.13v0.879h5.36v5.156a3.585,3.585,0,0,1-2.82-2.221,13.136,13.136,0,0,0,.43-2.021l-0.99-.152a7.037,7.037,0,0,1-2.25,4.921,8.2,8.2,0,0,1,.62.915h0Zm0.07-7.981h0.93v-1.336h8.52v1.348h0.92v-2.227h-4.74l0.53-.281c-0.36-.437-0.7-0.832-1-1.184l-0.89.481c0.26,0.32.5,0.648,0.73,0.984h-5V458.1Z" transform="translate(-1600 -170.5)"/>
  <rect id="矩形_1553-7" data-name="矩形 1553" class="cls-4" x="433" y="290.5" width="316" height="1" rx="0.5" ry="0.5"/>
  <path id="三角形_1614-3" data-name="三角形 1614" class="cls-5" d="M2357,461l-12.75,5.875L2348,461l-3.75-5.875Z" transform="translate(-1600 -170.5)"/>
  <path id="不合格品数" class="cls-8" d="M2124.36,470.61h5.6a17.988,17.988,0,0,1-5.95,6.047q0.36,0.421.66,0.844a19.945,19.945,0,0,0,4.72-4.219v6.984h1.01v-7.348h-0.68q0.93-1.335,1.5-2.308h4.31V469.7h-11.17v0.914Zm6.63,3.469q1.725,1.054,4.14,2.847l0.67-.925q-2.04-1.383-4.23-2.719Zm7.47,6.211h0.94v-0.809h6.29v0.785h0.94v-5.2h-8.17v5.227Zm3.7-11.461a14.579,14.579,0,0,1-5.47,4.382,10.571,10.571,0,0,1,.59.879q0.975-.538,1.83-1.1v0.586h6.85v-0.668a14.14,14.14,0,0,0,1.81,1.031c0.17-.281.38-0.594,0.62-0.937a11.942,11.942,0,0,1-5.19-3.833l0.28-.339h-1.32Zm3.53,9.82h-6.29v-2.731h6.29v2.731Zm0.03-5.906h-6.27a14.2,14.2,0,0,0,3.12-2.895,14.84,14.84,0,0,0,3.15,2.895h0Zm8.22,0.375c0.41-.524.79-1.051,1.13-1.582a6.961,6.961,0,0,0,1.42,1.828,14.675,14.675,0,0,1-3.42,1.594,8.645,8.645,0,0,1,.39.82,20.461,20.461,0,0,0,3.77-1.828,14.874,14.874,0,0,0,3.36,1.5,5.8,5.8,0,0,1,.39-1.02,9.8,9.8,0,0,1-2.97-1.054,9.805,9.805,0,0,0,2.2-2.579v-0.832h-4.24a11.065,11.065,0,0,0,.49-1.043l-0.87-.293a14.263,14.263,0,0,1-2.23,3.868c0.24,0.242.44,0.449,0.58,0.621h0Zm0.29,7.16h0.9v-0.586h3.98v0.586h0.9v-4.559h-5.78v4.559Zm-4.55-3.188a10.773,10.773,0,0,0,1.39-3.047v6.223h0.88v-6.773c0.33,0.351.7,0.769,1.12,1.254l0.6-.575c-0.5-.515-0.97-0.976-1.39-1.382l-0.33.316v-1.289h1.5V471h-1.5v-2.286h-0.88V471h-1.68v0.82h1.67a12.781,12.781,0,0,1-1.76,4.242,9.728,9.728,0,0,1,.38,1.031h0Zm9.43,1.758h-3.98v-2.285h3.98v2.285Zm-1.91-5.976a6.235,6.235,0,0,1-1.66-2.11h3.61a7.987,7.987,0,0,1-1.95,2.11h0Zm6.5,0.949h0.93v-0.375h6.22v0.375h0.93V469.18h-8.08v4.641Zm4.77,6.375h0.89v-0.8h2.69v0.8h0.89v-5.414h-4.47V480.2Zm-5.92,0h0.89v-0.785h2.68V480.2h0.89v-5.414h-4.46V480.2Zm8.3-7.57h-6.22V470h6.22v2.625Zm1.2,6.011h-2.69V475.6h2.69v3.035Zm-5.93-.023h-2.68V475.6h2.68v3.012Zm14.23-5.145a9.106,9.106,0,0,1,.59.75,8.071,8.071,0,0,0,.51-0.808,10.409,10.409,0,0,0,1.26,3.785,10.413,10.413,0,0,1-2.66,2.449,6.8,6.8,0,0,1,.66.738,11.1,11.1,0,0,0,2.57-2.32,9.064,9.064,0,0,0,2.38,2.2q0.255-.41.63-0.926a7.538,7.538,0,0,1-2.41-2.109,12.988,12.988,0,0,0,1.5-5.473h0.74v-0.8h-3.59a21.447,21.447,0,0,0,.58-2.121l-0.94-.14a11.485,11.485,0,0,1-1.82,4.769h0Zm-5.73,2.766h1.34c-0.24.383-.48,0.754-0.73,1.113,0.73,0.36,1.44.711,2.11,1.055a9.525,9.525,0,0,1-2.89,1.113q0.21,0.445.39,0.82a10.306,10.306,0,0,0,3.34-1.5c0.53,0.274,1.03.547,1.52,0.821l0.51-.809c-0.44-.2-0.88-0.406-1.31-0.609a5.611,5.611,0,0,0,1.35-2.016v-0.762h-2.88c0.13-.21.25-0.425,0.38-0.644l-0.84-.27q-0.255.469-.51,0.914h-1.78v0.774Zm0.13-4.031h2.41a13.078,13.078,0,0,1-2.7,1.945c0.18,0.25.35,0.488,0.5,0.715a11.869,11.869,0,0,0,2.49-1.957v1.64h0.86v-1.336q0.975,0.762,1.62,1.372l0.56-.657q-0.735-.609-1.83-1.406l-0.35.4V472.2h2.25V471.43h-2.25v-2.625h-0.86v2.625h-2.7V472.2Zm8.54,4.1a10.738,10.738,0,0,1-1.17-4.254,2.68,2.68,0,0,0,.13-0.293h2.19a11.145,11.145,0,0,1-1.15,4.547h0Zm-6.37-.07h2.44a5.092,5.092,0,0,1-1.27,1.629q-0.885-.411-1.71-0.785,0.27-.411.54-0.844h0Zm1.92-5.59q0.36,0.258.63,0.492,0.645-.714,1.29-1.558l-0.72-.481c-0.4.555-.79,1.071-1.2,1.547h0Zm-2.75.41,0.72-.515c-0.37-.493-0.74-0.953-1.09-1.383l-0.67.457c0.35,0.453.69,0.933,1.04,1.441h0Z" transform="translate(-1600 -170.5)"/>
  <path id="矩形_1553-8" data-name="矩形 1553" class="cls-7" d="M1985,410.5v-34a0.5,0.5,0,0,1,1,0v34A0.5,0.5,0,0,1,1985,410.5ZM2211.5,377h-226a0.5,0.5,0,0,1,0-1h226A0.5,0.5,0,0,1,2211.5,377Z" transform="translate(-1600 -170.5)"/>
  <path id="三角形_1614-4" data-name="三角形 1614" class="cls-5" d="M2220,377l-13,6,3.82-6-3.82-6Z" transform="translate(-1600 -170.5)"/>
  <path id="缺陷数" class="cls-8" d="M2052.67,365.227h1.83a6.418,6.418,0,0,1-2.15,4V365.04h-0.82v2.947l-1.09.035v-3.908h2.32v-0.8h-2.32V361h1.96v-0.8h-3.34c0.16-.43.31-0.879,0.46-1.348l-0.85-.234a13.458,13.458,0,0,1-1.54,3.7,7.674,7.674,0,0,1,.79.387,16.969,16.969,0,0,0,.82-1.711h0.86v2.32h-2.47v0.8h2.47v3.937l-1.09.035V365.04h-0.82v3.867l3.84-.129v0.469h0.79c-0.1.082-.2,0.16-0.31,0.234a7.538,7.538,0,0,1,.63.8,7.7,7.7,0,0,0,2.5-4.09,6.9,6.9,0,0,0,2.93,3.926c0.24-.3.5-0.6,0.79-0.9a5.7,5.7,0,0,1-3.22-3.984h3.15v-0.82h-0.85v-3.621h-2.39V358.7h-0.86v2.086h-1.77v0.82h1.76c-0.01,1.3-.03,2.23-0.07,2.8h-1.94v0.82Zm2.88-3.621h1.55v2.8h-1.6c0.02-.625.04-1.559,0.05-2.8h0Zm12.3,5.238h2.06v1.887h-4.8v-1.887h2v-0.8h-2V364.3a15.19,15.19,0,0,0,2.19-.55l-0.51-.8a12.281,12.281,0,0,1-2.55.7v6.586h0.87v-0.715h4.8v0.691h0.87v-6.8h-3.01v0.8h2.14v1.828h-2.06v0.8Zm-5.23-3.7q0.435-1.089,1.08-3.082v-0.82h-3.41V370.2h0.87V360.059h1.63q-0.465,1.6-1.08,3.234a5,5,0,0,1,1.02,1.969c0.18,1.008.02,1.539-.51,1.594a2.728,2.728,0,0,1-1.05-.094,9.706,9.706,0,0,1,.24.985,4.065,4.065,0,0,0,1.13-.012c0.93-.164,1.28-1,1.07-2.5a5.01,5.01,0,0,0-.99-2.1h0Zm1.84,0.024a17.632,17.632,0,0,0,1.54-2.332h3.13a16.277,16.277,0,0,1-1.46,1.746,5.672,5.672,0,0,1,.79.445,28.234,28.234,0,0,0,1.81-2.238v-0.774h-3.83c0.18-.367.36-0.746,0.53-1.136l-0.9-.223a15.816,15.816,0,0,1-2.43,4,6.111,6.111,0,0,1,.82.516h0Zm13.69,0.3a9.106,9.106,0,0,1,.59.75,8.071,8.071,0,0,0,.51-0.808,10.409,10.409,0,0,0,1.26,3.785,10.413,10.413,0,0,1-2.66,2.449,6.8,6.8,0,0,1,.66.738,11.1,11.1,0,0,0,2.57-2.32,9.064,9.064,0,0,0,2.38,2.2q0.255-.41.63-0.926a7.538,7.538,0,0,1-2.41-2.109,12.988,12.988,0,0,0,1.5-5.473h0.74v-0.8h-3.59a21.447,21.447,0,0,0,.58-2.121l-0.94-.14a11.485,11.485,0,0,1-1.82,4.769h0Zm-5.73,2.766h1.34c-0.24.383-.48,0.754-0.73,1.113,0.73,0.36,1.44.711,2.11,1.055a9.525,9.525,0,0,1-2.89,1.113q0.21,0.445.39,0.82a10.306,10.306,0,0,0,3.34-1.5c0.53,0.274,1.03.547,1.52,0.821l0.51-.809c-0.44-.2-0.88-0.406-1.31-0.609a5.611,5.611,0,0,0,1.35-2.016v-0.762h-2.88c0.13-.21.25-0.425,0.38-0.644l-0.84-.27q-0.255.469-.51,0.914h-1.78v0.774Zm0.13-4.031h2.41a13.078,13.078,0,0,1-2.7,1.945c0.18,0.25.35,0.488,0.5,0.715a11.869,11.869,0,0,0,2.49-1.957v1.64h0.86v-1.336q0.975,0.762,1.62,1.372l0.56-.657q-0.735-.609-1.83-1.406l-0.35.4V362.2h2.25V361.43h-2.25v-2.625h-0.86v2.625h-2.7V362.2Zm8.54,4.1a10.738,10.738,0,0,1-1.17-4.254,2.68,2.68,0,0,0,.13-0.293h2.19a11.145,11.145,0,0,1-1.15,4.547h0Zm-6.37-.07h2.44a5.092,5.092,0,0,1-1.27,1.629q-0.885-.411-1.71-0.785,0.27-.411.54-0.844h0Zm1.92-5.59q0.36,0.258.63,0.492,0.645-.714,1.29-1.558l-0.72-.481c-0.4.555-.79,1.071-1.2,1.547h0Zm-2.75.41,0.72-.515c-0.37-.493-0.74-0.953-1.09-1.383l-0.67.457c0.35,0.453.69,0.933,1.04,1.441h0Z" transform="translate(-1600 -170.5)"/>
  <rect id="矩形_1553-9" data-name="矩形 1553" class="cls-4" x="837" y="268.5" width="126" height="1" rx="0.5" ry="0.5"/>
  <path id="三角形_1614-5" data-name="三角形 1614" class="cls-5" d="M2566,439l-12.75,5.875L2557,439l-3.75-5.875Z" transform="translate(-1600 -170.5)"/>
  <path id="是" class="cls-8" d="M2483.98,427.008h0.89V426.54h6.19v0.468h0.89v-4.886h-7.97v4.886Zm-1.96,5.543c0.23,0.274.42,0.528,0.58,0.762a7.173,7.173,0,0,0,2.03-2.344,3.925,3.925,0,0,0,3.58,1.84c1.23,0.031,3,.043,5.3.035,0.09-.281.2-0.59,0.32-0.926-1.97.063-3.71,0.079-5.21,0.047v-1.629h4.17v-0.8h-4.17v-1.172h4.99v-0.821h-11.27v0.821h5.34V431.9a3.651,3.651,0,0,1-2.65-1.728,12.067,12.067,0,0,0,.43-1.166l-0.9-.27a6.218,6.218,0,0,1-2.54,3.82h0Zm2.85-7.84h6.19v1.032h-6.19v-1.032Zm6.19-.773h-6.19v-1.02h6.19v1.02Z" transform="translate(-1600 -170.5)"/>
  <rect id="矩形_1553-10" data-name="矩形 1553" class="cls-4" x="837" y="310.5" width="126" height="1" rx="0.5" ry="0.5"/>
  <path id="三角形_1614-6" data-name="三角形 1614" class="cls-5" d="M2566,481l-12.75,5.875L2557,481l-3.75-5.875Z" transform="translate(-1600 -170.5)"/>
  <path id="否" class="cls-8" d="M2484.7,500.2h0.95v-0.809h6.58v0.785h0.95v-5.2h-8.48V500.2Zm-1.1-10.008h5.18a19.99,19.99,0,0,1-5.65,3.551,7.245,7.245,0,0,1,.59.855,21.657,21.657,0,0,0,4.81-3.023v3.012h0.95v-3.411h-0.51a10.511,10.511,0,0,0,.93-0.984h4.38v-0.844H2483.6v0.844Zm8.63,8.379h-6.58v-2.754h6.58v2.754Zm1.92-4,0.63-.809a50.918,50.918,0,0,0-4.55-2.59l-0.51.68a46.953,46.953,0,0,1,4.43,2.719h0Z" transform="translate(-1600 -170.5)"/>
  <rect id="矩形_1553-11" data-name="矩形 1553" class="cls-4" x="700" y="184.5" width="258" height="1" rx="0.5" ry="0.5"/>
  <path id="三角形_1614-7" data-name="三角形 1614" class="cls-5" d="M2566,355l-12.75,5.875L2557,355l-3.75-5.875Z" transform="translate(-1600 -170.5)"/>
  <path id="不一定" class="cls-8" d="M2420.36,339.61h5.6a17.988,17.988,0,0,1-5.95,6.047q0.36,0.421.66,0.844a19.945,19.945,0,0,0,4.72-4.219v6.984h1.01v-7.348h-0.68q0.93-1.335,1.5-2.308h4.31V338.7h-11.17v0.914Zm6.63,3.469q1.725,1.054,4.14,2.847l0.67-.925q-2.04-1.383-4.23-2.719Zm5.74,0.527h11.65v-1.031h-11.65v1.031Zm13.18,5.672a7.7,7.7,0,0,0,1.81-2.625,4.183,4.183,0,0,0,3.89,2.144q2.145,0.07,5.01.036a8.6,8.6,0,0,1,.34-0.973c-1.82.066-3.52,0.08-5.07,0.041v-2.455h4.08v-0.867h-4.08v-1.9h4.8V341.8h-11.13v0.879h5.36v5.156a3.584,3.584,0,0,1-2.82-2.22,13.149,13.149,0,0,0,.43-2.022l-0.99-.152a7.04,7.04,0,0,1-2.25,4.922,8.1,8.1,0,0,1,.62.914h0Zm0.07-7.981h0.93v-1.336h8.52v1.348h0.92v-2.226h-4.74l0.53-.282c-0.36-.437-0.7-0.832-1-1.183l-0.89.48c0.26,0.321.5,0.649,0.73,0.985h-5V341.3Z" transform="translate(-1600 -170.5)"/>
  <rect id="矩形_1553-12" data-name="矩形 1553" class="cls-4" x="700" y="226.5" width="258" height="1" rx="0.5" ry="0.5"/>
  <path id="三角形_1614-8" data-name="三角形 1614" class="cls-5" d="M2566,397l-12.75,5.875L2557,397l-3.75-5.875Z" transform="translate(-1600 -170.5)"/>
  <path id="一定" class="cls-8" d="M2334.13,385.606h11.65v-1.031h-11.65v1.031Zm13.18,5.672a7.7,7.7,0,0,0,1.81-2.625,4.183,4.183,0,0,0,3.89,2.144q2.145,0.07,5.01.036a8.6,8.6,0,0,1,.34-0.973c-1.82.066-3.52,0.08-5.07,0.041v-2.455h4.08v-0.867h-4.08v-1.9h4.8V383.8h-11.13v0.879h5.36v5.156a3.584,3.584,0,0,1-2.82-2.22,13.149,13.149,0,0,0,.43-2.022l-0.99-.152a7.04,7.04,0,0,1-2.25,4.922,8.1,8.1,0,0,1,.62.914h0Zm0.07-7.981h0.93v-1.336h8.52v1.348h0.92v-2.226h-4.74l0.53-.282c-0.36-.437-0.7-0.832-1-1.183l-0.89.48c0.26,0.321.5,0.649,0.73,0.985h-5V383.3Z" transform="translate(-1600 -170.5)"/>
  <path id="矩形_1553-13" data-name="矩形 1553" class="cls-7" d="M1777,318.5v-27a0.5,0.5,0,0,1,1,0v27A0.5,0.5,0,0,1,1777,318.5ZM1886.5,292h-109a0.5,0.5,0,0,1,0-1h109A0.5,0.5,0,0,1,1886.5,292Z" transform="translate(-1600 -170.5)"/>
  <path id="三角形_1614-9" data-name="三角形 1614" class="cls-5" d="M1895,291l-13,6,3.82-6-3.82-6Z" transform="translate(-1600 -170.5)"/>
  <path id="计量值" class="cls-8" d="M1813.88,278.575h3.41v6.609h1.01v-6.609h3.43v-0.844h-3.43V273.7h-1.01v4.031h-3.41v0.844Zm-1.15,4.781v-5.695h-2.6V278.5h1.66v4.641a1.337,1.337,0,0,1-.41,1.066l0.56,0.8c0.82-.578,1.85-1.258,3.1-2.039-0.03-.273-0.06-0.613-0.08-1.019-0.81.523-1.55,0.992-2.23,1.406h0Zm-2.12-8.883a22.374,22.374,0,0,1,1.74,2.016l0.82-.692c-0.38-.421-1-1.07-1.85-1.945Zm12.14,10.324h11.58v-0.632h-5.38V283.5h4.71v-0.61h-4.71v-0.668h2.82v0.305h0.8v-3.6h-8.03v3.6h0.8v-0.305h2.79v0.668h-4.7v0.61h4.7v0.668h-5.38V284.8Zm1.89-7.312h0.79v-0.317h6.26v0.317h0.8v-3.352h-7.85v3.352Zm-1.8.879h11.44v-0.633h-11.44v0.633Zm2.59-2.438h6.26v0.633h-6.26v-0.633Zm6.26-.562h-6.26v-0.621h6.26v0.621Zm-2.74,5.484h2.82v0.762h-2.82v-0.762Zm-3.61,0h2.79v0.762h-2.79v-0.762Zm6.43-.562h-2.82v-0.75h2.82v0.75Zm-6.43-.75h2.79v0.75h-2.79v-0.75Zm12.83,5.308h8.79v-0.8h-1.11v-7.254h-2.84v-1.066h3.7v-0.8h-3.7v-1.242h-0.89v1.242h-3.39v0.8h3.39v1.066h-2.76v7.254h-1.19v0.8Zm-2.54-4.453a17.693,17.693,0,0,0,1.07-1.746v6.527h0.85V276.84q0.555-1.323,1.02-2.836l-0.86-.257a18.458,18.458,0,0,1-2.44,5.683q0.2,0.469.36,0.961h0Zm4.6,2.59h4.75v1.066h-4.75v-1.066Zm4.75-4.359h-4.75v-1.055h4.75v1.055Zm-4.75.75h4.75v1.054h-4.75v-1.054Zm0,1.8h4.75v1.055h-4.75v-1.055Z" transform="translate(-1600 -170.5)"/>
  <path id="矩形_1553-14" data-name="矩形 1553" class="cls-6" d="M1901.35,286.118l36.77-36.769a7.994,7.994,0,0,1,11.31,0l36.77,36.769a7.99,7.99,0,0,1,0,11.314L1949.43,334.2a7.994,7.994,0,0,1-11.31,0l-36.77-36.769A7.99,7.99,0,0,1,1901.35,286.118Z" transform="translate(-1600 -170.5)"/>
  <path id="样本大小" class="cls-2" d="M1923.3,295.025h3.44v3.059h0.91v-3.059h3.39v-0.82h-3.39v-1.922h2.69v-0.821h-2.69v-1.839h3.01V288.8h-2.14q0.735-.937,1.35-1.769l-0.87-.551a26.157,26.157,0,0,1-1.47,2.32h-3.62v0.821h2.83v1.839h-2.56v0.821h2.56v1.922h-3.44v0.82Zm-3.43-.152a15.614,15.614,0,0,0,1.44-3.223v6.434h0.86v-6.27c0.26,0.281.7,0.766,1.3,1.453l0.67-.609q-0.75-.8-1.5-1.547l-0.47.422v-1.84h1.37v-0.785h-1.37v-2.321h-0.86v2.321h-1.73v0.785h1.64a14.049,14.049,0,0,1-1.77,4.16q0.24,0.516.42,1.02h0Zm5.93-6.247,0.8-.55c-0.27-.375-0.71-0.91-1.33-1.606l-0.69.516c0.35,0.43.76,0.976,1.22,1.64h0Zm12.86,0.786h4.77v-0.868h-5.1v-2.109h-0.91v2.109h-5.1v0.868h4.73a19.869,19.869,0,0,1-4.99,5.789c0.21,0.179.47,0.414,0.77,0.7a19.788,19.788,0,0,0,4.59-5.742v4.64h-2.78v0.821h2.78v2.4h0.91v-2.4h2.68V294.8h-2.68v-4.64a15.7,15.7,0,0,0,4.52,5.6c0.33-.343.6-0.617,0.8-0.82a14.738,14.738,0,0,1-4.99-5.531h0Zm6.7,8.578q4.2-2.145,5.12-5.7a8.1,8.1,0,0,0,4.99,5.466,8.909,8.909,0,0,1,.89-0.949,7.487,7.487,0,0,1-5.47-6.176h5.22v-0.914h-5.2q0.03-1.6.03-3.175h-1.02q0,1.6-.03,3.175h-5.04v0.914h5q-0.375,4.306-5.21,6.457,0.495,0.587.72,0.9h0Zm11.92-2.965a10.577,10.577,0,0,1,.96.527,43.531,43.531,0,0,0,2.63-6.035l-0.96-.34a33.959,33.959,0,0,1-2.63,5.848h0Zm10.57,0.375,1.07-.5q-1.41-2.988-2.91-5.695l-0.87.422c0.85,1.64,1.76,3.566,2.71,5.777h0Zm-5.15.668a0.7,0.7,0,0,1-.83.75c-0.4,0-.98-0.035-1.73-0.106,0.08,0.391.15,0.758,0.2,1.1,0.73,0.023,1.31.035,1.75,0.035a1.405,1.405,0,0,0,1.65-1.523v-9.715h-1.04v9.457Z" transform="translate(-1600 -170.5)"/>
  <path id="矩形_1553-15" data-name="矩形 1553" class="cls-6" d="M2117.35,286.118l36.77-36.769a7.994,7.994,0,0,1,11.31,0l36.77,36.769a7.99,7.99,0,0,1,0,11.314L2165.43,334.2a7.994,7.994,0,0,1-11.31,0l-36.77-36.769A7.99,7.99,0,0,1,2117.35,286.118Z" transform="translate(-1600 -170.5)"/>
  <path id="均值计算是否方便" class="cls-2" d="M2140.29,282.626a22.96,22.96,0,0,0,1.25-2.472h4.07c-0.07,3.055-.15,5.25-0.22,6.586a1.054,1.054,0,0,1-1.16,1.1,19.811,19.811,0,0,1-2.16-.129h-0.04c0.08,0.352.15,0.684,0.19,1,0.6,0.031,1.29.046,2.06,0.046a1.76,1.76,0,0,0,2.01-1.863q0.09-1.417.26-7.594h-4.66c0.2-.5.39-1.011,0.58-1.547l-0.94-.281a20.637,20.637,0,0,1-2.05,4.723,8.153,8.153,0,0,1,.81.433h0Zm-4.55,4.922c1.39-.57,2.72-1.093,3.97-1.57-0.02-.258-0.04-0.582-0.05-0.973-0.52.223-1.07,0.446-1.63,0.668v-4.324h1.52v-0.832h-1.52v-2.93h-0.87v2.93h-1.57v0.832h1.57v4.658c-0.56.211-1.14,0.424-1.73,0.639Zm4.61-.773q2.475-1.1,4.65-2.016c-0.05-.258-0.09-0.57-0.13-0.937q-2.535,1.089-4.89,2.027Zm2.66-2.813,0.76-.668c-0.63-.624-1.29-1.25-1.97-1.875l-0.64.575c0.63,0.625,1.25,1.281,1.85,1.968h0Zm7.9,4.688h8.79v-0.8h-1.12V280.6h-2.83v-1.066h3.69v-0.8h-3.69v-1.242h-0.89v1.242h-3.4v0.8h3.4V280.6h-2.77v7.254h-1.18v0.8Zm-2.54-4.453a17.652,17.652,0,0,0,1.06-1.746v6.527h0.86v-8.332q0.54-1.325,1.02-2.836l-0.87-.258a18.464,18.464,0,0,1-2.44,5.684c0.13,0.312.26,0.633,0.37,0.961h0Zm4.59,2.59h4.76v1.066h-4.76v-1.066Zm4.76-4.36h-4.76v-1.054h4.76v1.054Zm-4.76.75h4.76v1.055h-4.76v-1.055Zm0,1.805h4.76v1.055h-4.76v-1.055Zm11.45-2.6h3.41v6.61h1.01v-6.61h3.43v-0.843h-3.43v-4.032h-1.01v4.032h-3.41v0.843Zm-1.15,4.782v-5.7h-2.6v0.844h1.66v4.641a1.306,1.306,0,0,1-.41,1.066l0.57,0.8q1.215-.867,3.09-2.039c-0.03-.273-0.06-0.613-0.08-1.02-0.81.524-1.55,0.993-2.23,1.407h0Zm-2.12-8.883a24.32,24.32,0,0,1,1.75,2.015l0.82-.691c-0.39-.422-1-1.07-1.85-1.945Zm13.75,7.453h0.82v-0.387h6.81v0.387h0.82v-5.273h-0.91L2183,280a10.305,10.305,0,0,0-.93-0.855h2.67v-0.68h-3.71c0.19-.328.37-0.675,0.55-1.043h-1.01a8.772,8.772,0,0,1-1.64,2.438,7.4,7.4,0,0,1,.72.551,10.851,10.851,0,0,0,.96-1.266h1.16l-0.4.305a12.325,12.325,0,0,1,.99,1.008h-5.4l0.55-.422q-0.42-.463-0.84-0.891h2.64v-0.68h-3.41c0.22-.336.42-0.683,0.61-1.043h-1a8.148,8.148,0,0,1-2.27,2.743,7.62,7.62,0,0,1,.58.6,10.661,10.661,0,0,0,1.58-1.617h0.99l-0.42.305c0.29,0.312.58,0.648,0.86,1.008h-1.94v5.273Zm-1.54,1.3h3.02c-0.29.648-1.09,1.082-2.38,1.3q0.285,0.41.51,0.773c1.57-.332,2.5-1.024,2.78-2.074h3.96V289h0.87v-1.968h2.78v-0.727h-2.78V285.58h-0.87v0.726h-3.84a5.747,5.747,0,0,0,.04-0.738h-0.85a5.5,5.5,0,0,1-.05.738h-3.19v0.727Zm9.17-5.133h-6.81v-0.785h6.81V281.9Zm-6.81,2h6.81v0.785h-6.81V283.9Zm0-1.395h6.81v0.785h-6.81v-0.785Zm-38.4,18.305h0.89v-0.469h6.19v0.469h0.89v-4.887h-7.97v4.887Zm-1.96,5.543a9.328,9.328,0,0,1,.58.762,7.059,7.059,0,0,0,2.03-2.344,3.938,3.938,0,0,0,3.58,1.84c1.24,0.031,3,.043,5.3.035q0.135-.421.33-0.926-2.97.094-5.22,0.047v-1.629h4.17v-0.8h-4.17v-1.172h4.99v-0.82h-11.27v0.82h5.35V305.7a3.652,3.652,0,0,1-2.66-1.729,11.97,11.97,0,0,0,.43-1.166l-0.89-.269a6.275,6.275,0,0,1-2.55,3.82h0Zm2.85-7.84h6.19v1.031h-6.19v-1.031Zm6.19-.773h-6.19v-1.02h6.19v1.02Zm5.24,9.257h0.95v-0.808h6.59v0.785h0.95v-5.2h-8.49V307Zm-1.1-10.007h5.18a19.988,19.988,0,0,1-5.65,3.55,6.414,6.414,0,0,1,.6.856,21.864,21.864,0,0,0,4.8-3.024v3.012h0.95v-3.41h-0.5a11.831,11.831,0,0,0,.92-0.984h4.39V296.15h-10.69v0.844Zm8.64,8.379h-6.59v-2.754h6.59v2.754Zm1.92-4,0.62-.808a49.315,49.315,0,0,0-4.55-2.59l-0.5.68a48.492,48.492,0,0,1,4.43,2.718h0Zm1.75-2.988h3.19c-0.04,1.008-.08,1.821-0.14,2.438a6.808,6.808,0,0,1-3.31,5.461c0.26,0.281.5,0.546,0.71,0.8a7.6,7.6,0,0,0,3.58-6h4.67q-0.105,2.015-.24,3.41a1.181,1.181,0,0,1-1.21,1.277,18.846,18.846,0,0,1-2.41-.2c0.07,0.422.13,0.781,0.17,1.078,0.99,0.062,1.79.094,2.38,0.094a1.918,1.918,0,0,0,2.06-2.121c0.11-1.25.21-2.723,0.31-4.418h-5.66q0.045-.75.09-1.817h7.1V297.5h-5.55l0.85-.434c-0.43-.758-0.76-1.305-0.98-1.641l-0.91.434c0.22,0.344.53,0.891,0.92,1.641h-5.62v0.89Zm23.39,4.512v-4.875h-3.14v-1.1h3.61v-0.8h-7.75v0.8h3.29v1.1h-3.14v4.535h3.05a3.972,3.972,0,0,1-.6,1.723,5.964,5.964,0,0,1-1.64-1.524l-0.64.528a6.967,6.967,0,0,0,1.7,1.64,7.472,7.472,0,0,1-2.91,1.3c0.24,0.281.46,0.547,0.65,0.8a7.379,7.379,0,0,0,3.05-1.617,12.673,12.673,0,0,0,4.59,1.277,8.533,8.533,0,0,1,.54-0.914,12.684,12.684,0,0,1-4.55-1.055,5.263,5.263,0,0,0,.67-2.156h2.4v0.34h0.82Zm-10.68-.727a14.8,14.8,0,0,0,1.26-1.916v6.709h0.84v-8.39q0.57-1.242,1.11-2.742l-0.9-.364a19.919,19.919,0,0,1-2.68,5.649c0.14,0.383.26,0.734,0.37,1.054h0Zm7.54-1.523h2.32v1.16h-2.34c0.01-.414.02-0.8,0.02-1.16h0Zm-3.17,1.16v-1.16h2.32c0,0.586,0,.973-0.01,1.16h-2.31Zm5.49-1.887h-2.32v-1.148h2.32v1.148Zm-5.49-1.148h2.32v1.148h-2.32v-1.148Z" transform="translate(-1600 -170.5)"/>
  <path id="矩形_1553-16" data-name="矩形 1553" class="cls-6" d="M2333.35,286.118l36.77-36.769a7.994,7.994,0,0,1,11.31,0l36.77,36.769a7.99,7.99,0,0,1,0,11.314L2381.43,334.2a7.994,7.994,0,0,1-11.31,0l-36.77-36.769A7.99,7.99,0,0,1,2333.35,286.118Z" transform="translate(-1600 -170.5)"/>
  <path id="均值计算是否方便-2" data-name="均值计算是否方便" class="cls-2" d="M2366.38,283.488a3.089,3.089,0,0,0-.56-1.989,1.966,1.966,0,0,0-1.62-.683,2.343,2.343,0,0,0-2.13,1.225h-0.02v-1.073h-1.15v6.481h1.15v-3.7a2.071,2.071,0,0,1,.49-1.423,1.55,1.55,0,0,1,1.24-.563c0.97,0,1.46.666,1.46,2v3.686h1.14v-3.961Zm3.53-.674h0.89v-0.469h6.19v0.469h0.89v-4.887h-7.97v4.887Zm-1.96,5.543a9.328,9.328,0,0,1,.58.762,7.173,7.173,0,0,0,2.03-2.344,3.927,3.927,0,0,0,3.58,1.84c1.23,0.031,3,.043,5.3.035,0.09-.281.2-0.59,0.32-0.926-1.97.063-3.71,0.078-5.21,0.047v-1.629h4.17v-0.8h-4.17v-1.172h4.99v-0.82h-11.27v0.82h5.34V287.7a3.652,3.652,0,0,1-2.65-1.729,11.97,11.97,0,0,0,.43-1.166l-0.89-.269a6.275,6.275,0,0,1-2.55,3.82h0Zm2.85-7.84h6.19v1.031h-6.19v-1.031Zm6.19-.773h-6.19v-1.02h6.19v1.02Zm5.24,9.257h0.95v-0.808h6.58v0.785h0.95v-5.2h-8.48V289Zm-1.1-10.007h5.18a19.988,19.988,0,0,1-5.65,3.55,9.069,9.069,0,0,1,.6.856,21.864,21.864,0,0,0,4.8-3.024v3.012h0.95v-3.41h-0.5a11.831,11.831,0,0,0,.92-0.984h4.38V278.15h-10.68v0.844Zm8.63,8.379h-6.58v-2.754h6.58v2.754Zm1.92-4,0.63-.808a50.673,50.673,0,0,0-4.55-2.59l-0.5.68a48.277,48.277,0,0,1,4.42,2.718h0Zm-30.74,23.614c2.81-1.43,4.51-3.33,5.12-5.7a8.1,8.1,0,0,0,4.99,5.466,8.909,8.909,0,0,1,.89-0.949,7.462,7.462,0,0,1-5.46-6.176h5.21v-0.914h-5.2q0.03-1.6.03-3.175h-1.02q0,1.6-.03,3.175h-5.04v0.914h5q-0.375,4.306-5.21,6.457,0.5,0.587.72,0.9h0Zm11.95-5.789h5.45v3.679a1.109,1.109,0,0,1-.17.739,0.919,0.919,0,0,1-.7.2c-0.34,0-.96-0.031-1.84-0.094a7.743,7.743,0,0,1,.19,1.067q1.455,0.011,1.98.011a1.569,1.569,0,0,0,1.23-.433,1.832,1.832,0,0,0,.29-1.149V301.2h5.1v-0.926h-5.1v-3.024h4.21v-0.925h-9.7v0.925h4.51v3.024h-5.45V301.2Zm13.45,4.09a3.791,3.791,0,0,0,1.62.31,3.179,3.179,0,0,0,2.72-1.353,6.478,6.478,0,0,0,.98-3.868,5.269,5.269,0,0,0-.76-3.1,2.453,2.453,0,0,0-2.11-1.064,2.821,2.821,0,0,0-2.13.859,3.032,3.032,0,0,0-.82,2.194,2.829,2.829,0,0,0,.75,2.039,2.5,2.5,0,0,0,1.89.785,2.092,2.092,0,0,0,2.01-1.137,0.022,0.022,0,0,0,.03,0,4.79,4.79,0,0,1-.67,2.731,2.178,2.178,0,0,1-1.89.961,3.183,3.183,0,0,1-1.62-.434v1.073Zm1.14-7.559a1.54,1.54,0,0,1,1.21-.557,1.523,1.523,0,0,1,1.28.642,2.631,2.631,0,0,1,.48,1.62,1.634,1.634,0,0,1-.48,1.187,1.651,1.651,0,0,1-1.21.489,1.618,1.618,0,0,1-1.29-.536,2.141,2.141,0,0,1-.47-1.451A2.059,2.059,0,0,1,2387.48,297.732Z" transform="translate(-1600 -170.5)"/>
  <rect id="矩形_1553-17" data-name="矩形 1553" class="cls-4" x="393" y="121.5" width="110" height="1" rx="0.5" ry="0.5"/>
  <path id="三角形_1614-10" data-name="三角形 1614" class="cls-5" d="M2111,292l-12.75,5.875L2102,292l-3.75-5.875Z" transform="translate(-1600 -170.5)"/>
  <path id="n_2" data-name="n&gt;=2" class="cls-8" d="M2034.44,278.682a3.09,3.09,0,0,0-.55-1.989,1.987,1.987,0,0,0-1.63-.683,2.33,2.33,0,0,0-2.12,1.225h-0.03v-1.072h-1.14v6.48h1.14v-3.7a2.123,2.123,0,0,1,.49-1.424,1.564,1.564,0,0,1,1.24-.562c0.97,0,1.46.666,1.46,2v3.685h1.14v-3.961Zm8.7,0.018-5.49-3.024v1.014l4.09,2.2v0.041l-4.09,1.94v1.008l5.49-2.731V278.7Zm9.74-1.623h-5.97v0.884h5.97v-0.884Zm0,2.707h-5.97v0.884h5.97v-0.884Zm6.66-2.552a5.936,5.936,0,0,1-1.45,1.315,10.3,10.3,0,0,0-1.54,1.246,3.216,3.216,0,0,0-.7,1.066,3.516,3.516,0,0,0-.22,1.333v0.451h5.71v-1.019h-4.51a1.727,1.727,0,0,1,.15-0.756,2.158,2.158,0,0,1,.54-0.651,17.663,17.663,0,0,1,1.52-1.125,5.573,5.573,0,0,0,1.57-1.5,3.163,3.163,0,0,0,.46-1.734,2.254,2.254,0,0,0-.75-1.784,2.887,2.887,0,0,0-1.98-.659,3.323,3.323,0,0,0-1.33.246,3.223,3.223,0,0,0-1.01.709v1.113a3.8,3.8,0,0,1,1.07-.82,2.57,2.57,0,0,1,1.14-.287,1.813,1.813,0,0,1,1.26.418,1.471,1.471,0,0,1,.46,1.152A2.212,2.212,0,0,1,2059.54,277.232Z" transform="translate(-1600 -170.5)"/>
  <rect id="矩形_1553-18" data-name="矩形 1553" class="cls-4" x="609" y="121.5" width="110" height="1" rx="0.5" ry="0.5"/>
  <path id="三角形_1614-11" data-name="三角形 1614" class="cls-5" d="M2327,292l-12.75,5.875L2318,292l-3.75-5.875Z" transform="translate(-1600 -170.5)"/>
  <path id="是-2" data-name="是" class="cls-8" d="M2258.98,278.008h0.89V277.54h6.19v0.468h0.89v-4.886h-7.97v4.886Zm-1.96,5.543c0.23,0.274.42,0.528,0.58,0.762a7.173,7.173,0,0,0,2.03-2.344,3.925,3.925,0,0,0,3.58,1.84c1.23,0.031,3,.043,5.3.035,0.09-.281.2-0.59,0.32-0.926-1.97.063-3.71,0.079-5.21,0.047v-1.629h4.17v-0.8h-4.17v-1.172h4.99v-0.821h-11.27v0.821h5.34V282.9a3.651,3.651,0,0,1-2.65-1.728,12.067,12.067,0,0,0,.43-1.166l-0.9-.27a6.218,6.218,0,0,1-2.54,3.82h0Zm2.85-7.84h6.19v1.032h-6.19v-1.032Zm6.19-.773h-6.19v-1.02h6.19v1.02Z" transform="translate(-1600 -170.5)"/>
  <rect id="矩形_1553-19" data-name="矩形 1553" class="cls-4" x="807" y="100.5" width="152" height="1" rx="0.5" ry="0.5"/>
  <path id="三角形_1614-12" data-name="三角形 1614" class="cls-5" d="M2566,271l-12.75,5.875L2557,271l-3.75-5.875Z" transform="translate(-1600 -170.5)"/>
  <path id="是-3" data-name="是" class="cls-8" d="M2467.98,259.008h0.89V258.54h6.19v0.468h0.89v-4.886h-7.97v4.886Zm-1.96,5.543c0.23,0.274.42,0.528,0.58,0.762a7.173,7.173,0,0,0,2.03-2.344,3.925,3.925,0,0,0,3.58,1.84c1.23,0.031,3,.043,5.3.035,0.09-.281.2-0.59,0.32-0.926-1.97.063-3.71,0.079-5.21,0.047v-1.629h4.17v-0.8h-4.17v-1.172h4.99v-0.821h-11.27v0.821h5.34V263.9a3.651,3.651,0,0,1-2.65-1.728,12.067,12.067,0,0,0,.43-1.166l-0.9-.27a6.218,6.218,0,0,1-2.54,3.82h0Zm2.85-7.84h6.19v1.032h-6.19v-1.032Zm6.19-.773h-6.19v-1.02h6.19v1.02Z" transform="translate(-1600 -170.5)"/>
  <rect id="矩形_1553-20" data-name="矩形 1553" class="cls-4" x="807" y="142.5" width="156" height="1" rx="0.5" ry="0.5"/>
  <path id="三角形_1614-13" data-name="三角形 1614" class="cls-5" d="M2566,313l-12.75,5.875L2557,313l-3.75-5.875Z" transform="translate(-1600 -170.5)"/>
  <path id="否-2" data-name="否" class="cls-8" d="M2467.7,306.2h0.95v-0.809h6.58v0.785h0.95v-5.2h-8.48V306.2Zm-1.1-10.008h5.18a19.99,19.99,0,0,1-5.65,3.551,7.245,7.245,0,0,1,.59.855,21.657,21.657,0,0,0,4.81-3.023v3.012h0.95v-3.411h-0.51a10.511,10.511,0,0,0,.93-0.984h4.38v-0.844H2466.6v0.844Zm8.63,8.379h-6.58v-2.754h6.58v2.754Zm1.92-4,0.63-.809a50.918,50.918,0,0,0-4.55-2.59l-0.51.68a46.953,46.953,0,0,1,4.43,2.719h0Z" transform="translate(-1600 -170.5)"/>
  <path id="矩形_1553-21" data-name="矩形 1553" class="cls-7" d="M1943,242.5v-56a0.5,0.5,0,0,1,1,0v56A0.5,0.5,0,0,1,1943,242.5ZM2562.5,187h-619a0.5,0.5,0,0,1,0-1h619A0.5,0.5,0,0,1,2562.5,187Z" transform="translate(-1600 -170.5)"/>
  <path id="三角形_1614-14" data-name="三角形 1614" class="cls-5" d="M2567,187l-13,6,3.82-6-3.82-6Z" transform="translate(-1600 -170.5)"/>
  <path id="n_1" data-name="n=1" class="cls-8" d="M1977.44,200.682a3.09,3.09,0,0,0-.55-1.989,1.987,1.987,0,0,0-1.63-.683,2.33,2.33,0,0,0-2.12,1.225h-0.03v-1.072h-1.14v6.48h1.14v-3.7a2.123,2.123,0,0,1,.49-1.424,1.564,1.564,0,0,1,1.24-.562c0.97,0,1.46.666,1.46,2v3.685h1.14v-3.961Zm8.94-1.6h-5.97v0.884h5.97v-0.884Zm0,2.707h-5.97v0.884h5.97v-0.884Zm6.53,2.859v-9.275h-0.43a7.219,7.219,0,0,1-1.26.823,7.754,7.754,0,0,1-1.54.636v1.125a5.3,5.3,0,0,0,1.18-.469,3.8,3.8,0,0,0,.91-0.6v7.764h1.14Z" transform="translate(-1600 -170.5)"/>
  <path id="矩形_1553-22" data-name="矩形 1553" class="cls-7" d="M2160,242.5v-14a0.5,0.5,0,0,1,1,0v14A0.5,0.5,0,0,1,2160,242.5ZM2559.5,229h-399a0.5,0.5,0,0,1,0-1h399A0.5,0.5,0,0,1,2559.5,229Z" transform="translate(-1600 -170.5)"/>
  <path id="三角形_1614-15" data-name="三角形 1614" class="cls-5" d="M2566,229l-13,6,3.82-6-3.82-6Z" transform="translate(-1600 -170.5)"/>
  <path id="否-3" data-name="否" class="cls-8" d="M2308.7,222.2h0.95v-0.809h6.58v0.785h0.95v-5.2h-8.48V222.2Zm-1.1-10.008h5.18a19.99,19.99,0,0,1-5.65,3.551,7.245,7.245,0,0,1,.59.855,21.657,21.657,0,0,0,4.81-3.023v3.012h0.95v-3.411h-0.51a10.511,10.511,0,0,0,.93-0.984h4.38v-0.844H2307.6v0.844Zm8.63,8.379h-6.58v-2.754h6.58v2.754Zm1.92-4,0.63-.809a50.918,50.918,0,0,0-4.55-2.59l-0.51.68a46.953,46.953,0,0,1,4.43,2.719h0Z" transform="translate(-1600 -170.5)"/>
</svg>
