<svg id="图层_1" data-name="图层 1" xmlns="http://www.w3.org/2000/svg" viewBox="0 0 14 16"><path d="M338.39,418h-1.82a.6.6,0,0,0-.59.62V423h3v-4.38a.6.6,0,0,0-.59-.62Zm0,0" transform="translate(-330.48 -406.95)"/><path d="M343.64,410.25l-4.94-3a2.33,2.33,0,0,0-2.44,0l-4.94,3a1.74,1.74,0,0,0-.84,1.5l.88,9.49a1.72,1.72,0,0,0,1.69,1.71h1.75v-4.83a1.82,1.82,0,0,1,1.76-1.86h1.84a1.82,1.82,0,0,1,1.76,1.86V423h1.75a1.72,1.72,0,0,0,1.69-1.71l.88-9.43v-.06a1.74,1.74,0,0,0-.84-1.5Zm0,0" transform="translate(-330.48 -406.95)"/></svg>