<svg t="1650252634786" class="icon" viewBox="0 0 1024 1024" version="1.1" xmlns="http://www.w3.org/2000/svg" p-id="20612" width="200" height="200"><path d="M512 683.2L166.4 270.4c-11.2-12.8-32-16-44.8-3.2-12.8 11.2-16 32-3.2 44.8l368 440 3.2 3.2s1.6 0 1.6 1.6c1.6 1.6 3.2 1.6 4.8 3.2h1.6c1.6 0 3.2 1.6 4.8 1.6h1.6c1.6 0 3.2 0 4.8 1.6h6.4c1.6 0 3.2 0 4.8-1.6h1.6c1.6 0 3.2-1.6 4.8-1.6h1.6c1.6 0 3.2-1.6 4.8-3.2 0 0 1.6 0 1.6-1.6l3.2-3.2 369.6-440c11.2-12.8 9.6-33.6-3.2-44.8-12.8-11.2-33.6-9.6-44.8 3.2L512 683.2z" p-id="20613"></path></svg>