<svg t="1650250616968" class="icon" viewBox="0 0 1024 1024" version="1.1" xmlns="http://www.w3.org/2000/svg" p-id="7474" width="200" height="200"><path d="M234.56 290.64m32 0l204.58 0q32 0 32 32l0 0q0 32-32 32l-204.58 0q-32 0-32-32l0 0q0-32 32-32Z" fill="#1AD8E2" p-id="7475"></path><path d="M658.05 290.64m32 0l71.82 0q32 0 32 32l0 0q0 32-32 32l-71.82 0q-32 0-32-32l0 0q0-32 32-32Z" fill="#1AD8E2" p-id="7476"></path><path d="M793.87 544.22m-32 0l-204.58 0q-32 0-32-32l0 0q0-32 32-32l204.58 0q32 0 32 32l0 0q0 32-32 32Z" fill="#1AD8E2" p-id="7477"></path><path d="M370.38 544.22m-32 0l-71.82 0q-32 0-32-32l0 0q0-32 32-32l71.82 0q32 0 32 32l0 0q0 32-32 32Z" fill="#1AD8E2" p-id="7478"></path><path d="M882.64 707.89H135a44.05 44.05 0 0 1-44-44V168.37a44.05 44.05 0 0 1 44-44h747.64a44 44 0 0 1 44 44v495.52a44 44 0 0 1-44 44z m-727.64-64h707.64V188.37H155z" fill="#2C77E5" p-id="7479"></path><path d="M241.73 831.81m32 0l478.3 0q32 0 32 32l0 0q0 32-32 32l-478.3 0q-32 0-32-32l0 0q0-32 32-32Z" fill="#2C77E5" p-id="7480"></path><path d="M478.77 640.13m0 32l0 175.21q0 32-32 32l0 0q-32 0-32-32l0-175.21q0-32 32-32l0 0q32 0 32 32Z" fill="#2C77E5" p-id="7481"></path><path d="M605.7 640.12m0 32l0 175.21q0 32-32 32l0 0q-32 0-32-32l0-175.21q0-32 32-32l0 0q32 0 32 32Z" fill="#2C77E5" p-id="7482"></path></svg>