<svg id="图层_1" data-name="图层 1"
  xmlns="http://www.w3.org/2000/svg" viewBox="0 0 18 16">
  <defs>
    <style>.cls-1{fill:#547cb5;}</style>
  </defs>
  <path class="cls-1" d="M944.951,529.1a7,7,0,0,1,5,2.847,10.789,10.789,0,0,1,1.454,2.484,1.784,1.784,0,0,1,0,1.319,10.813,10.813,0,0,1-1.45,2.483,6.585,6.585,0,0,1-10.847,0,10.763,10.763,0,0,1-1.451-2.465,1.774,1.774,0,0,1,0-1.319,10.811,10.811,0,0,1,1.456-2.49,6.906,6.906,0,0,1,5.415-2.862l.426,0m-.406-2.014h-.016v.016h-.015a8.933,8.933,0,0,0-6.975,3.624,12.814,12.814,0,0,0-1.728,2.951,3.782,3.782,0,0,0,0,2.866,12.8,12.8,0,0,0,1.728,2.935,8.576,8.576,0,0,0,13.981,0,12.775,12.775,0,0,0,1.727-2.951,3.782,3.782,0,0,0,0-2.866,12.8,12.8,0,0,0-1.727-2.952,8.935,8.935,0,0,0-6.975-3.623Z" transform="translate(-935.529 -527.09)"/>
  <path d="M944.529,535.09" transform="translate(-935.529 -527.09)"/>
  <path class="cls-1" d="M944.529,533.423a1.666,1.666,0,1,1-1.178.488,1.667,1.667,0,0,1,1.178-.488m0-1.333a3,3,0,1,0,3,3,3,3,0,0,0-3-3Zm0,0" transform="translate(-935.529 -527.09)"/>
</svg>