<svg 
 xmlns="http://www.w3.org/2000/svg"
 xmlns:xlink="http://www.w3.org/1999/xlink"
 width="20px" height="20px">
<path fill-rule="evenodd"  fill="rgb(247, 164, 39)"
 d="M9.999,-0.000 C15.523,-0.000 20.000,4.477 20.000,10.000 C20.000,15.523 15.523,20.000 9.999,20.000 C4.477,20.000 -0.000,15.523 -0.000,10.000 C-0.000,4.477 4.477,-0.000 9.999,-0.000 Z"/>
<path fill-rule="evenodd"  fill="rgb(255, 255, 255)"
 d="M10.000,13.000 C9.448,13.000 9.000,12.552 9.000,12.000 L9.000,5.000 C9.000,4.448 9.448,4.000 10.000,4.000 C10.552,4.000 11.000,4.448 11.000,5.000 L11.000,12.000 C11.000,12.552 10.552,13.000 10.000,13.000 ZM9.999,14.000 C10.552,14.000 11.000,14.448 11.000,15.000 C11.000,15.552 10.552,16.000 9.999,16.000 C9.447,16.000 8.999,15.552 8.999,15.000 C8.999,14.448 9.447,14.000 9.999,14.000 Z"/>
</svg>
