<svg 
 xmlns="http://www.w3.org/2000/svg"
 xmlns:xlink="http://www.w3.org/1999/xlink"
 width="104px" height="88px">
<path fill-rule="evenodd"  fill="rgb(247, 164, 39)"
 d="M95.998,68.000 L8.000,68.000 C3.582,68.000 -0.000,64.418 -0.000,60.000 L-0.000,16.718 C-0.000,16.666 0.007,16.616 0.008,16.564 L-0.000,16.564 L-0.000,8.000 C-0.000,3.582 3.582,-0.000 8.000,-0.000 L25.599,-0.000 C31.810,-0.000 37.182,3.546 39.834,8.718 L95.998,8.718 C100.416,8.718 103.997,12.300 103.997,16.718 L103.997,60.000 C103.997,64.418 100.416,68.000 95.998,68.000 Z"/>
<path fill-rule="evenodd"  fill="rgb(255, 255, 255)"
 d="M20.010,20.000 L84.010,20.000 C88.428,20.000 92.009,23.582 92.009,28.000 L92.009,68.000 C92.009,72.418 88.428,76.000 84.010,76.000 L20.010,76.000 C15.591,76.000 12.010,72.418 12.010,68.000 L12.010,28.000 C12.010,23.582 15.591,20.000 20.010,20.000 Z"/>
<path fill-rule="evenodd"  fill="rgb(247, 195, 40)"
 d="M8.000,28.002 L96.000,28.002 C100.418,28.002 104.000,31.584 104.000,36.002 L104.000,80.002 C104.000,84.421 100.418,88.002 96.000,88.002 L8.000,88.002 C3.582,88.002 -0.000,84.421 -0.000,80.002 L-0.000,36.002 C-0.000,31.584 3.582,28.002 8.000,28.002 Z"/>
<path fill-rule="evenodd"  fill="rgb(255, 255, 255)"
 d="M62.880,58.250 C62.299,58.836 61.359,58.836 60.779,58.250 L53.829,51.231 L53.829,69.015 C53.829,69.835 53.164,70.500 52.344,70.500 C51.523,70.500 50.858,69.835 50.858,69.015 L50.858,51.199 L43.876,58.250 C43.296,58.836 42.356,58.836 41.776,58.250 C41.196,57.665 41.196,56.715 41.776,56.129 L50.878,46.937 C51.219,46.592 51.682,46.478 52.125,46.544 C52.199,46.533 52.266,46.500 52.344,46.500 C52.416,46.500 52.479,46.531 52.548,46.541 C52.986,46.481 53.441,46.596 53.778,46.937 L62.880,56.129 C63.460,56.715 63.460,57.665 62.880,58.250 Z"/>
</svg>
