<svg id="上传文件_icon" xmlns="http://www.w3.org/2000/svg" width="104" height="88" viewBox="0 0 104 88">
  <defs>
    <style>
      .cls-1 {
        fill: #f7a427;
      }

      .cls-1, .cls-2 {
        fill-rule: evenodd;
      }

      .cls-2 {
        fill: #fff;
      }

      .cls-3 {
        fill: #f7c328;
      }
    </style>
  </defs>
  <path id="矩形_5166_拷贝_2" data-name="矩形 5166 拷贝 2" class="cls-1" d="M1817,238h-88a8,8,0,0,1-8-8V186.718c0-.052.01-0.1,0.01-0.154H1721V178a8,8,0,0,1,8-8h17.6a15.979,15.979,0,0,1,14.23,8.718H1817a8,8,0,0,1,8,8V230A8,8,0,0,1,1817,238Z" transform="translate(-1721 -170)"/>
  <path id="矩形_5166_拷贝" data-name="矩形 5166 拷贝" class="cls-2" d="M1741.01,190h64a8,8,0,0,1,8,8v48h-80V198A8,8,0,0,1,1741.01,190Z" transform="translate(-1721 -170)"/>
  <rect id="矩形_5166" data-name="矩形 5166" class="cls-3" y="28" width="104" height="60" rx="8" ry="8"/>
  <path id="矩形_5173" data-name="矩形 5173" class="cls-2" d="M1783.88,228.25a1.474,1.474,0,0,1-2.1,0l-6.95-7.019v17.784a1.485,1.485,0,1,1-2.97,0V221.2l-6.98,7.051a1.474,1.474,0,0,1-2.1,0,1.51,1.51,0,0,1,0-2.121l9.1-9.192a7.782,7.782,0,0,1,1.46-.437,1.3,1.3,0,0,1,.21.041,1.427,1.427,0,0,1,1.23.4l9.1,9.192A1.51,1.51,0,0,1,1783.88,228.25Z" transform="translate(-1721 -170)"/>
</svg>
