<svg xmlns="http://www.w3.org/2000/svg" width="14" height="14" viewBox="0 0 14 14">
  <defs>
    <style>
      .cls-1 {
        fill: #939599;
        fill-rule: evenodd;
      }
    </style>
  </defs>
  <path id="上传_icon" class="cls-1" d="M966.984,754h-10a1,1,0,0,1-1-1v-4a1,1,0,0,1,2,0v3h8v-3a1,1,0,0,1,2,0v4A1,1,0,0,1,966.984,754Zm-1.46-8.073-2.54-2.539V749a1,1,0,0,1-2,0v-5.362l-2.289,2.289a1,1,0,0,1-1.414-1.414l3.748-3.749a0.938,0.938,0,0,1,1.166-.746,0.886,0.886,0,0,1,.992.744l3.751,3.751A1,1,0,0,1,965.524,745.927Z" transform="translate(-954.969 -740)"/>
</svg>
