<svg id="已选_icon" xmlns="http://www.w3.org/2000/svg" width="18" height="18" viewBox="0 0 18 18">
  <defs>
    <style>
      .cls-1 {
        fill: #5781c1;
      }

      .cls-2 {
        fill: #fff;
        fill-rule: evenodd;
      }
    </style>
  </defs>
  <rect id="圆角矩形_1778" data-name="圆角矩形 1778" class="cls-1" width="18" height="18" rx="4" ry="4"/>
  <path id="圆角矩形_1779" data-name="圆角矩形 1779" class="cls-2" d="M1803.83,159.837l5.04-4.433a0.979,0.979,0,0,1,1.26,0,0.716,0.716,0,0,1,0,1.108l-5.04,4.433a0.979,0.979,0,0,1-1.26,0A0.716,0.716,0,0,1,1803.83,159.837Zm-1.93-2.211,2.53,2.217a0.729,0.729,0,0,1,0,1.108,0.979,0.979,0,0,1-1.26,0l-2.53-2.216a0.73,0.73,0,0,1,0-1.109A0.979,0.979,0,0,1,1801.9,157.626Z" transform="translate(-1796 -149)"/>
</svg>
