<svg id="格式文件_icon" xmlns="http://www.w3.org/2000/svg" width="14" height="18" viewBox="0 0 14 18">
  <defs>
    <style>
      .cls-1 {
        fill: none;
        stroke: #c4c7cc;
        stroke-width: 2px;
        fill-rule: evenodd;
      }
    </style>
  </defs>
  <path id="矩形_6470" data-name="矩形 6470" class="cls-1" d="M1895,219a3,3,0,0,1-3,3h-6a3,3,0,0,1-3-3V209a3,3,0,0,1,3-3h3.34l5.66,5.657V219Z" transform="translate(-1882 -205)"/>
  <path id="矩形_6471" data-name="矩形 6471" class="cls-1" d="M1895,210.8V213h-5a2.829,2.829,0,0,1-3-2.625V206h2.51Z" transform="translate(-1882 -205)"/>
  <path id="矩形_6472" data-name="矩形 6472" class="cls-1" d="M1886.5,215h3a0.5,0.5,0,0,1,0,1h-3A0.5,0.5,0,0,1,1886.5,215Zm0,3h5a0.5,0.5,0,0,1,0,1h-5A0.5,0.5,0,0,1,1886.5,218Z" transform="translate(-1882 -205)"/>
</svg>
