<svg xmlns="http://www.w3.org/2000/svg" width="16" height="16" viewBox="0 0 16 16">
  <defs>
    <style>
      .cls-1 {
        fill: #5781c1;
        fill-rule: evenodd;
      }
    </style>
  </defs>
  <path id="选择菜单图标_选中_icon" class="cls-1" d="M1052,757h8v8a8,8,0,0,1-8,8h-8v-8A8,8,0,0,1,1052,757Zm3.95,6.685-4.24,4.242a0.994,0.994,0,0,1-1.41,0,0.905,0.905,0,0,1-.24-0.443l-1.79-1.785a1,1,0,1,1,1.41-1.414l1.42,1.42,3.44-3.435A1,1,0,0,1,1055.95,763.685Z" transform="translate(-1044 -757)"/>
</svg>
