<svg xmlns="http://www.w3.org/2000/svg" width="14" height="14" viewBox="0 0 14 14">
  <defs>
    <style>
      .cls-1 {
        fill: #5781c1;
        fill-rule: evenodd;
      }
    </style>
  </defs>
  <path id="重置密码_icon" class="cls-1" d="M2524.95,331.225a6.621,6.621,0,0,1,.05.775h-2a5,5,0,0,0-9.58-2h-2.13a7,7,0,0,1,11.71-2.894V326a1,1,0,0,1,2,0v5A0.854,0.854,0,0,1,2524.95,331.225ZM2518,339a6.974,6.974,0,0,1-5-2.106V338a1,1,0,0,1-2,0v-5a0.854,0.854,0,0,1,.05-0.225A6.621,6.621,0,0,1,2511,332h2a5,5,0,0,0,9.58,2h2.13A7,7,0,0,1,2518,339Z" transform="translate(-2511 -325)"/>
</svg>
