<svg id="图层_1" data-name="图层 1"
    xmlns="http://www.w3.org/2000/svg" viewBox="0 0 16 16">

    <path  class="cls-1" d="M987.759,536.981h-12a2,2,0,0,0-2,2v8a2,2,0,0,0,2,2h1.219a1.046,1.046,0,0,0,.079.121l1.846,1.879h-1.026a1.117,1.117,0,0,0-1.118,1.118v.882h10V552.1a1.118,1.118,0,0,0-1.118-1.118h-1.026l1.846-1.879a1.046,1.046,0,0,0,.079-.121h1.219a2,2,0,0,0,2-2v-8A2,2,0,0,0,987.759,536.981Zm-5.615,13.586a1,1,0,0,0-.237.414h-.3a1.006,1.006,0,0,0-.238-.414l-1.558-1.586H983.7Zm4.34-8.318-2.653,2.929a1.055,1.055,0,0,1-1.451,0l-2.01-2.22-2.01,2.22a.877.877,0,0,1-1.326,0,1.112,1.112,0,0,1,0-1.465l2.652-2.929a.932.932,0,0,1,1.368,0l2.052,2.266,2.052-2.266a.877.877,0,0,1,1.326,0A1.115,1.115,0,0,1,986.484,542.249Z" transform="translate(-973.759 -536.981)"/>
</svg>