<svg id="图层_1" data-name="图层 1"
    xmlns="http://www.w3.org/2000/svg" viewBox="0 0 16 16">
   
    <path class="cls-1" d="M959.911,532.355a5.893,5.893,0,0,0-4.144,1.672,5.718,5.718,0,0,0-1.7,4.048v7.808h11.616v-7.808a5.67,5.67,0,0,0-1.7-4.048,5.865,5.865,0,0,0-4.072-1.672Zm-.48,11.656-.168-3.784H956.4l3.76-4.744.32,3.056,2.72.1-3.8,5.376Zm-7.52,3.472a.874.874,0,0,1,.872-.88h14.256a.9.9,0,0,1,.616.256.91.91,0,0,1,.256.624.871.871,0,0,1-.872.872H952.783a.872.872,0,0,1-.872-.872Zm0,0" transform="translate(-951.911 -532.355)"/>
</svg>