<svg id="图层_1" data-name="图层 1"
    xmlns="http://www.w3.org/2000/svg" viewBox="0 0 14 16">
    <path class="cls-1" d="M338.4,417.947h-1.829a.6.6,0,0,0-.586.621v4.379h3v-4.379a.6.6,0,0,0-.585-.621Zm0,0" transform="translate(-330.48 -406.947)"/>
    <path class="cls-1" d="M343.64,410.248l-4.937-2.961a2.369,2.369,0,0,0-2.445,0l-4.938,2.961a1.756,1.756,0,0,0-.84,1.5l.882,9.487a1.717,1.717,0,0,0,1.693,1.71H334.8v-4.827a1.812,1.812,0,0,1,1.762-1.854H338.4a1.813,1.813,0,0,1,1.763,1.854v4.829h1.745a1.716,1.716,0,0,0,1.693-1.708l.879-9.431,0-.058a1.749,1.749,0,0,0-.84-1.5Zm0,0" transform="translate(-330.48 -406.947)"/>
</svg>