<svg id="图层_1" data-name="图层 1"
    xmlns="http://www.w3.org/2000/svg" viewBox="0 0 14 16">
   
    <path class="cls-1" d="M7173.238,2557.437l-6.588-1.969-6.586,1.969a.56.56,0,0,0-.413.536v7.837a5.651,5.651,0,0,0,1.67,2.593,24.5,24.5,0,0,0,4.605,2.731c.17.084.25.115.322.152l.321.151a.427.427,0,0,0,.322,0l.321-.151a25.041,25.041,0,0,0,4.766-2.883,5.643,5.643,0,0,0,1.673-2.593v-7.837A.559.559,0,0,0,7173.238,2557.437Zm-5.871,5.656v3.7a.718.718,0,0,1-1.432,0v-3.7a1.883,1.883,0,0,1-1.284-1.749,2,2,0,0,1,4,0A1.883,1.883,0,0,1,7167.367,2563.093Z" transform="translate(-7159.651 -2555.468)"/>
</svg>